<?xml version="1.0" encoding="utf-8" standalone="no"?>
<!DOCTYPE svg PUBLIC "-//W3C//DTD SVG 1.1//EN"
  "http://www.w3.org/Graphics/SVG/1.1/DTD/svg11.dtd">
<!-- Created with matplotlib (https://matplotlib.org/) -->
<svg height="172pt" version="1.1" viewBox="0 0 744 172" width="744pt" xmlns="http://www.w3.org/2000/svg" xmlns:xlink="http://www.w3.org/1999/xlink">
 <metadata>
  <rdf:RDF xmlns:cc="http://creativecommons.org/ns#" xmlns:dc="http://purl.org/dc/elements/1.1/" xmlns:rdf="http://www.w3.org/1999/02/22-rdf-syntax-ns#">
   <cc:Work>
    <dc:type rdf:resource="http://purl.org/dc/dcmitype/StillImage"/>
    <dc:date>2021-04-14T08:56:16.276606</dc:date>
    <dc:format>image/svg+xml</dc:format>
    <dc:creator>
     <cc:Agent>
      <dc:title>Matplotlib v3.3.4, https://matplotlib.org/</dc:title>
     </cc:Agent>
    </dc:creator>
   </cc:Work>
  </rdf:RDF>
 </metadata>
 <defs>
  <style type="text/css">*{stroke-linecap:butt;stroke-linejoin:round;}</style>
 </defs>
 <g id="figure_1">
  <g id="patch_1">
   <path d="M 0 172 
L 744 172 
L 744 0 
L 0 0 
z
" style="fill:none;"/>
  </g>
  <g id="axes_1">
   <g id="patch_2">
    <path d="M 10.8 116.055455 
L 733.2 116.055455 
L 733.2 88.144545 
L 10.8 88.144545 
z
" style="fill:#ffffff;"/>
   </g>
   <g id="PolyCollection_1">
    <defs>
     <path d="M 10.91056 -75.98527 
L 10.91056 -69.417998 
L 11.02112 -69.209841 
L 11.13168 -69.002105 
L 11.242241 -68.794996 
L 11.352801 -68.588725 
L 11.463361 -68.383499 
L 11.573921 -68.179524 
L 11.684481 -67.977006 
L 11.795041 -67.776149 
L 11.905601 -67.577155 
L 12.016162 -67.380224 
L 12.126722 -67.185555 
L 12.237282 -66.993343 
L 12.347842 -66.803783 
L 12.458402 -66.617065 
L 12.568962 -66.433377 
L 12.679522 -66.252904 
L 12.790083 -66.075828 
L 12.900643 -65.902327 
L 13.011203 -65.732576 
L 13.121763 -65.566745 
L 13.232323 -65.405002 
L 13.342883 -65.24751 
L 13.453444 -65.094427 
L 13.564004 -64.945907 
L 13.674564 -64.8021 
L 13.785124 -64.66315 
L 13.895684 -64.529198 
L 14.006244 -64.400379 
L 14.116804 -64.276821 
L 14.227365 -64.15865 
L 14.337925 -64.045985 
L 14.448485 -63.938939 
L 14.559045 -63.837619 
L 14.669605 -63.742128 
L 14.780165 -63.652562 
L 14.890725 -63.569011 
L 15.001286 -63.49156 
L 15.111846 -63.420286 
L 15.222406 -63.35526 
L 15.332966 -63.296549 
L 15.443526 -63.244212 
L 15.554086 -63.198301 
L 15.664646 -63.158863 
L 15.775207 -63.125936 
L 15.885767 -63.099555 
L 15.996327 -63.079746 
L 16.106887 -63.066529 
L 16.217447 -63.059918 
L 16.328007 -63.059918 
L 16.438567 -63.066529 
L 16.549128 -63.079746 
L 16.659688 -63.099555 
L 16.770248 -63.125936 
L 16.880808 -63.158863 
L 16.991368 -63.198301 
L 17.101928 -63.244212 
L 17.212489 -63.296549 
L 17.323049 -63.35526 
L 17.433609 -63.420286 
L 17.544169 -63.49156 
L 17.654729 -63.569011 
L 17.765289 -63.652562 
L 17.875849 -63.742128 
L 17.98641 -63.837619 
L 18.09697 -63.938939 
L 18.20753 -64.045985 
L 18.20753 -70.613258 
L 18.20753 -70.613258 
L 18.09697 -70.506211 
L 17.98641 -70.404892 
L 17.875849 -70.309401 
L 17.765289 -70.219835 
L 17.654729 -70.136284 
L 17.544169 -70.058833 
L 17.433609 -69.987558 
L 17.323049 -69.922533 
L 17.212489 -69.863822 
L 17.101928 -69.811485 
L 16.991368 -69.765574 
L 16.880808 -69.726135 
L 16.770248 -69.693209 
L 16.659688 -69.666828 
L 16.549128 -69.647019 
L 16.438567 -69.633802 
L 16.328007 -69.62719 
L 16.217447 -69.62719 
L 16.106887 -69.633802 
L 15.996327 -69.647019 
L 15.885767 -69.666828 
L 15.775207 -69.693209 
L 15.664646 -69.726135 
L 15.554086 -69.765574 
L 15.443526 -69.811485 
L 15.332966 -69.863822 
L 15.222406 -69.922533 
L 15.111846 -69.987558 
L 15.001286 -70.058833 
L 14.890725 -70.136284 
L 14.780165 -70.219835 
L 14.669605 -70.309401 
L 14.559045 -70.404892 
L 14.448485 -70.506211 
L 14.337925 -70.613258 
L 14.227365 -70.725923 
L 14.116804 -70.844094 
L 14.006244 -70.967651 
L 13.895684 -71.096471 
L 13.785124 -71.230423 
L 13.674564 -71.369372 
L 13.564004 -71.513179 
L 13.453444 -71.661699 
L 13.342883 -71.814782 
L 13.232323 -71.972275 
L 13.121763 -72.134018 
L 13.011203 -72.299848 
L 12.900643 -72.4696 
L 12.790083 -72.643101 
L 12.679522 -72.820177 
L 12.568962 -73.00065 
L 12.458402 -73.184338 
L 12.347842 -73.371056 
L 12.237282 -73.560616 
L 12.126722 -73.752828 
L 12.016162 -73.947497 
L 11.905601 -74.144428 
L 11.795041 -74.343422 
L 11.684481 -74.544279 
L 11.573921 -74.746797 
L 11.463361 -74.950772 
L 11.352801 -75.155998 
L 11.242241 -75.362269 
L 11.13168 -75.569377 
L 11.02112 -75.777114 
L 10.91056 -75.98527 
z
" id="m9b1e431ed0" style="stroke:#ffa500;"/>
    </defs>
    <g clip-path="url(#pc557810641)">
     <use style="fill:#ffa500;stroke:#ffa500;" x="0" xlink:href="#m9b1e431ed0" y="172"/>
    </g>
   </g>
   <g id="PolyCollection_2">
    <path clip-path="url(#pc557810641)" d="M 10.8 95.806364 
L 10.8 102.373636 
L 10.8 95.806364 
L 10.8 95.806364 
z
" style="fill:#ff7f50;stroke:#ff7f50;"/>
    <path clip-path="url(#pc557810641)" d="M 18.31809 101.274077 
L 18.31809 107.84135 
L 18.42865 107.723179 
L 18.53921 107.599621 
L 18.64977 107.470802 
L 18.760331 107.33685 
L 18.870891 107.1979 
L 18.981451 107.054093 
L 19.092011 106.905573 
L 19.202571 106.75249 
L 19.313131 106.594998 
L 19.423691 106.433255 
L 19.534252 106.267424 
L 19.644812 106.097673 
L 19.755372 105.924172 
L 19.865932 105.747096 
L 19.976492 105.566623 
L 20.087052 105.382935 
L 20.197612 105.196217 
L 20.308173 105.006657 
L 20.418733 104.814445 
L 20.529293 104.619776 
L 20.639853 104.422845 
L 20.750413 104.223851 
L 20.860973 104.022994 
L 20.971534 103.820476 
L 21.082094 103.616501 
L 21.192654 103.411275 
L 21.303214 103.205004 
L 21.413774 102.997895 
L 21.524334 102.790159 
L 21.634894 102.582002 
L 21.745455 102.373636 
L 21.745455 95.806364 
L 21.745455 95.806364 
L 21.634894 96.01473 
L 21.524334 96.222886 
L 21.413774 96.430623 
L 21.303214 96.637731 
L 21.192654 96.844002 
L 21.082094 97.049228 
L 20.971534 97.253203 
L 20.860973 97.455721 
L 20.750413 97.656578 
L 20.639853 97.855572 
L 20.529293 98.052503 
L 20.418733 98.247172 
L 20.308173 98.439384 
L 20.197612 98.628944 
L 20.087052 98.815662 
L 19.976492 98.99935 
L 19.865932 99.179823 
L 19.755372 99.356899 
L 19.644812 99.5304 
L 19.534252 99.700152 
L 19.423691 99.865982 
L 19.313131 100.027725 
L 19.202571 100.185218 
L 19.092011 100.338301 
L 18.981451 100.486821 
L 18.870891 100.630628 
L 18.760331 100.769577 
L 18.64977 100.903529 
L 18.53921 101.032349 
L 18.42865 101.155906 
L 18.31809 101.274077 
z
" style="fill:#ff7f50;stroke:#ff7f50;"/>
   </g>
   <g id="PolyCollection_3">
    <path clip-path="url(#pc557810641)" d="M 77.025528 96.844002 
L 77.025528 103.411275 
L 77.578329 104.422845 
L 78.131129 105.382935 
L 78.68393 106.267424 
L 79.236731 107.054093 
L 79.789532 107.723179 
L 80.342332 108.257872 
L 80.895133 108.64474 
L 81.447934 108.874064 
L 82.000735 108.940082 
L 82.553535 108.841137 
L 82.553535 102.273865 
L 82.553535 102.273865 
L 82.000735 102.37281 
L 81.447934 102.306791 
L 80.895133 102.077467 
L 80.342332 101.690599 
L 79.789532 101.155906 
L 79.236731 100.486821 
L 78.68393 99.700152 
L 78.131129 98.815662 
L 77.578329 97.855572 
L 77.025528 96.844002 
z
" style="fill:#ffa500;stroke:#ffa500;"/>
    <path clip-path="url(#pc557810641)" d="M 93.056749 89.246529 
L 93.056749 95.813802 
L 93.60955 95.945574 
L 94.162351 96.238833 
L 94.715152 96.686211 
L 95.267952 97.276471 
L 95.820753 97.994782 
L 96.373554 98.823101 
L 96.926354 99.740616 
L 97.479155 100.724279 
L 98.031956 101.749377 
L 98.584757 102.790159 
L 99.137557 103.820476 
L 99.690358 104.814445 
L 100.243159 105.747096 
L 100.79596 106.594998 
L 101.34876 107.33685 
L 101.901561 107.954015 
L 102.454362 108.430989 
L 103.007163 108.755788 
L 103.559963 108.920254 
L 104.112764 108.920254 
L 104.112764 102.352981 
L 104.112764 102.352981 
L 103.559963 102.352981 
L 103.007163 102.188515 
L 102.454362 101.863716 
L 101.901561 101.386742 
L 101.34876 100.769577 
L 100.79596 100.027725 
L 100.243159 99.179823 
L 99.690358 98.247172 
L 99.137557 97.253203 
L 98.584757 96.222886 
L 98.031956 95.182105 
L 97.479155 94.157006 
L 96.926354 93.173343 
L 96.373554 92.255828 
L 95.820753 91.42751 
L 95.267952 90.709198 
L 94.715152 90.118939 
L 94.162351 89.67156 
L 93.60955 89.378301 
L 93.056749 89.246529 
z
" style="fill:#ffa500;stroke:#ffa500;"/>
    <path clip-path="url(#pc557810641)" d="M 115.168779 89.279555 
L 115.168779 95.846828 
L 115.721579 96.043822 
L 116.27438 96.399835 
L 116.827181 96.905923 
L 117.379982 97.549372 
L 117.932782 98.314018 
L 118.485583 99.18065 
L 119.038384 100.127497 
L 119.591185 101.130772 
L 120.143985 102.16527 
L 120.696786 103.205004 
L 121.249587 104.223851 
L 121.802388 105.196217 
L 122.355188 106.097673 
L 122.907989 106.905573 
L 123.46079 107.599621 
L 124.01359 108.162381 
L 124.566391 108.579714 
L 125.119192 108.841137 
L 125.671993 108.940082 
L 126.224793 108.874064 
L 126.224793 102.306791 
L 126.224793 102.306791 
L 125.671993 102.37281 
L 125.119192 102.273865 
L 124.566391 102.012442 
L 124.01359 101.595108 
L 123.46079 101.032349 
L 122.907989 100.338301 
L 122.355188 99.5304 
L 121.802388 98.628944 
L 121.249587 97.656578 
L 120.696786 96.637731 
L 120.143985 95.597998 
L 119.591185 94.563499 
L 119.038384 93.560224 
L 118.485583 92.613377 
L 117.932782 91.746745 
L 117.379982 90.9821 
L 116.827181 90.33865 
L 116.27438 89.832562 
L 115.721579 89.476549 
L 115.168779 89.279555 
z
" style="fill:#ffa500;stroke:#ffa500;"/>
   </g>
   <g id="PolyCollection_4">
    <path clip-path="url(#pc557810641)" d="M 76.472727 95.806364 
L 76.472727 102.373636 
L 76.472727 95.806364 
L 76.472727 95.806364 
z
" style="fill:#ff7f50;stroke:#ff7f50;"/>
    <path clip-path="url(#pc557810641)" d="M 83.106336 102.012442 
L 83.106336 108.579714 
L 83.659137 108.162381 
L 84.211938 107.599621 
L 84.764738 106.905573 
L 85.317539 106.097673 
L 85.87034 105.196217 
L 86.42314 104.223851 
L 86.975941 103.205004 
L 87.528742 102.16527 
L 88.081543 101.130772 
L 88.634343 100.127497 
L 89.187144 99.18065 
L 89.739945 98.314018 
L 90.292746 97.549372 
L 90.845546 96.905923 
L 91.398347 96.399835 
L 91.951148 96.043822 
L 92.503949 95.846828 
L 92.503949 89.279555 
L 92.503949 89.279555 
L 91.951148 89.476549 
L 91.398347 89.832562 
L 90.845546 90.33865 
L 90.292746 90.9821 
L 89.739945 91.746745 
L 89.187144 92.613377 
L 88.634343 93.560224 
L 88.081543 94.563499 
L 87.528742 95.597998 
L 86.975941 96.637731 
L 86.42314 97.656578 
L 85.87034 98.628944 
L 85.317539 99.5304 
L 84.764738 100.338301 
L 84.211938 101.032349 
L 83.659137 101.595108 
L 83.106336 102.012442 
z
" style="fill:#ff7f50;stroke:#ff7f50;"/>
    <path clip-path="url(#pc557810641)" d="M 104.665565 102.188515 
L 104.665565 108.755788 
L 105.218365 108.430989 
L 105.771166 107.954015 
L 106.323967 107.33685 
L 106.876768 106.594998 
L 107.429568 105.747096 
L 107.982369 104.814445 
L 108.53517 103.820476 
L 109.087971 102.790159 
L 109.640771 101.749377 
L 110.193572 100.724279 
L 110.746373 99.740616 
L 111.299174 98.823101 
L 111.851974 97.994782 
L 112.404775 97.276471 
L 112.957576 96.686211 
L 113.510376 96.238833 
L 114.063177 95.945574 
L 114.615978 95.813802 
L 114.615978 89.246529 
L 114.615978 89.246529 
L 114.063177 89.378301 
L 113.510376 89.67156 
L 112.957576 90.118939 
L 112.404775 90.709198 
L 111.851974 91.42751 
L 111.299174 92.255828 
L 110.746373 93.173343 
L 110.193572 94.157006 
L 109.640771 95.182105 
L 109.087971 96.222886 
L 108.53517 97.253203 
L 107.982369 98.247172 
L 107.429568 99.179823 
L 106.876768 100.027725 
L 106.323967 100.769577 
L 105.771166 101.386742 
L 105.218365 101.863716 
L 104.665565 102.188515 
z
" style="fill:#ff7f50;stroke:#ff7f50;"/>
    <path clip-path="url(#pc557810641)" d="M 126.777594 102.077467 
L 126.777594 108.64474 
L 127.330395 108.257872 
L 127.883196 107.723179 
L 128.435996 107.054093 
L 128.988797 106.267424 
L 129.541598 105.382935 
L 130.094399 104.422845 
L 130.647199 103.411275 
L 131.2 102.373636 
L 131.2 95.806364 
L 131.2 95.806364 
L 130.647199 96.844002 
L 130.094399 97.855572 
L 129.541598 98.815662 
L 128.988797 99.700152 
L 128.435996 100.486821 
L 127.883196 101.155906 
L 127.330395 101.690599 
L 126.777594 102.077467 
z
" style="fill:#ff7f50;stroke:#ff7f50;"/>
   </g>
   <g id="PolyCollection_5">
    <path clip-path="url(#pc557810641)" d="M 186.480073 96.844002 
L 186.480073 103.411275 
L 187.032874 104.422845 
L 187.585675 105.382935 
L 188.138476 106.267424 
L 188.691276 107.054093 
L 189.244077 107.723179 
L 189.796878 108.257872 
L 190.349679 108.64474 
L 190.902479 108.874064 
L 191.45528 108.940082 
L 192.008081 108.841137 
L 192.008081 102.273865 
L 192.008081 102.273865 
L 191.45528 102.37281 
L 190.902479 102.306791 
L 190.349679 102.077467 
L 189.796878 101.690599 
L 189.244077 101.155906 
L 188.691276 100.486821 
L 188.138476 99.700152 
L 187.585675 98.815662 
L 187.032874 97.855572 
L 186.480073 96.844002 
z
" style="fill:#ffa500;stroke:#ffa500;"/>
    <path clip-path="url(#pc557810641)" d="M 202.511295 89.246529 
L 202.511295 95.813802 
L 203.064096 95.945574 
L 203.616896 96.238833 
L 204.169697 96.686211 
L 204.722498 97.276471 
L 205.275298 97.994782 
L 205.828099 98.823101 
L 206.3809 99.740616 
L 206.933701 100.724279 
L 207.486501 101.749377 
L 208.039302 102.790159 
L 208.592103 103.820476 
L 209.144904 104.814445 
L 209.697704 105.747096 
L 210.250505 106.594998 
L 210.803306 107.33685 
L 211.356107 107.954015 
L 211.908907 108.430989 
L 212.461708 108.755788 
L 213.014509 108.920254 
L 213.567309 108.920254 
L 213.567309 102.352981 
L 213.567309 102.352981 
L 213.014509 102.352981 
L 212.461708 102.188515 
L 211.908907 101.863716 
L 211.356107 101.386742 
L 210.803306 100.769577 
L 210.250505 100.027725 
L 209.697704 99.179823 
L 209.144904 98.247172 
L 208.592103 97.253203 
L 208.039302 96.222886 
L 207.486501 95.182105 
L 206.933701 94.157006 
L 206.3809 93.173343 
L 205.828099 92.255828 
L 205.275298 91.42751 
L 204.722498 90.709198 
L 204.169697 90.118939 
L 203.616896 89.67156 
L 203.064096 89.378301 
L 202.511295 89.246529 
z
" style="fill:#ffa500;stroke:#ffa500;"/>
    <path clip-path="url(#pc557810641)" d="M 224.623324 89.279555 
L 224.623324 95.846828 
L 225.176125 96.043822 
L 225.728926 96.399835 
L 226.281726 96.905923 
L 226.834527 97.549372 
L 227.387328 98.314018 
L 227.940129 99.18065 
L 228.492929 100.127497 
L 229.04573 101.130772 
L 229.598531 102.16527 
L 230.151331 103.205004 
L 230.704132 104.223851 
L 231.256933 105.196217 
L 231.809734 106.097673 
L 232.362534 106.905573 
L 232.915335 107.599621 
L 233.468136 108.162381 
L 234.020937 108.579714 
L 234.573737 108.841137 
L 235.126538 108.940082 
L 235.679339 108.874064 
L 235.679339 102.306791 
L 235.679339 102.306791 
L 235.126538 102.37281 
L 234.573737 102.273865 
L 234.020937 102.012442 
L 233.468136 101.595108 
L 232.915335 101.032349 
L 232.362534 100.338301 
L 231.809734 99.5304 
L 231.256933 98.628944 
L 230.704132 97.656578 
L 230.151331 96.637731 
L 229.598531 95.597998 
L 229.04573 94.563499 
L 228.492929 93.560224 
L 227.940129 92.613377 
L 227.387328 91.746745 
L 226.834527 90.9821 
L 226.281726 90.33865 
L 225.728926 89.832562 
L 225.176125 89.476549 
L 224.623324 89.279555 
z
" style="fill:#ffa500;stroke:#ffa500;"/>
   </g>
   <g id="PolyCollection_6">
    <path clip-path="url(#pc557810641)" d="M 185.927273 95.806364 
L 185.927273 102.373636 
L 185.927273 95.806364 
L 185.927273 95.806364 
z
" style="fill:#ff7f50;stroke:#ff7f50;"/>
    <path clip-path="url(#pc557810641)" d="M 192.560882 102.012442 
L 192.560882 108.579714 
L 193.113682 108.162381 
L 193.666483 107.599621 
L 194.219284 106.905573 
L 194.772084 106.097673 
L 195.324885 105.196217 
L 195.877686 104.223851 
L 196.430487 103.205004 
L 196.983287 102.16527 
L 197.536088 101.130772 
L 198.088889 100.127497 
L 198.64169 99.18065 
L 199.19449 98.314018 
L 199.747291 97.549372 
L 200.300092 96.905923 
L 200.852893 96.399835 
L 201.405693 96.043822 
L 201.958494 95.846828 
L 201.958494 89.279555 
L 201.958494 89.279555 
L 201.405693 89.476549 
L 200.852893 89.832562 
L 200.300092 90.33865 
L 199.747291 90.9821 
L 199.19449 91.746745 
L 198.64169 92.613377 
L 198.088889 93.560224 
L 197.536088 94.563499 
L 196.983287 95.597998 
L 196.430487 96.637731 
L 195.877686 97.656578 
L 195.324885 98.628944 
L 194.772084 99.5304 
L 194.219284 100.338301 
L 193.666483 101.032349 
L 193.113682 101.595108 
L 192.560882 102.012442 
z
" style="fill:#ff7f50;stroke:#ff7f50;"/>
    <path clip-path="url(#pc557810641)" d="M 214.12011 102.188515 
L 214.12011 108.755788 
L 214.672911 108.430989 
L 215.225712 107.954015 
L 215.778512 107.33685 
L 216.331313 106.594998 
L 216.884114 105.747096 
L 217.436915 104.814445 
L 217.989715 103.820476 
L 218.542516 102.790159 
L 219.095317 101.749377 
L 219.648118 100.724279 
L 220.200918 99.740616 
L 220.753719 98.823101 
L 221.30652 97.994782 
L 221.85932 97.276471 
L 222.412121 96.686211 
L 222.964922 96.238833 
L 223.517723 95.945574 
L 224.070523 95.813802 
L 224.070523 89.246529 
L 224.070523 89.246529 
L 223.517723 89.378301 
L 222.964922 89.67156 
L 222.412121 90.118939 
L 221.85932 90.709198 
L 221.30652 91.42751 
L 220.753719 92.255828 
L 220.200918 93.173343 
L 219.648118 94.157006 
L 219.095317 95.182105 
L 218.542516 96.222886 
L 217.989715 97.253203 
L 217.436915 98.247172 
L 216.884114 99.179823 
L 216.331313 100.027725 
L 215.778512 100.769577 
L 215.225712 101.386742 
L 214.672911 101.863716 
L 214.12011 102.188515 
z
" style="fill:#ff7f50;stroke:#ff7f50;"/>
    <path clip-path="url(#pc557810641)" d="M 236.23214 102.077467 
L 236.23214 108.64474 
L 236.78494 108.257872 
L 237.337741 107.723179 
L 237.890542 107.054093 
L 238.443343 106.267424 
L 238.996143 105.382935 
L 239.548944 104.422845 
L 240.101745 103.411275 
L 240.654545 102.373636 
L 240.654545 95.806364 
L 240.654545 95.806364 
L 240.101745 96.844002 
L 239.548944 97.855572 
L 238.996143 98.815662 
L 238.443343 99.700152 
L 237.890542 100.486821 
L 237.337741 101.155906 
L 236.78494 101.690599 
L 236.23214 102.077467 
z
" style="fill:#ff7f50;stroke:#ff7f50;"/>
   </g>
   <g id="PolyCollection_7">
    <defs>
     <path d="M 251.71056 -75.98527 
L 251.71056 -69.417998 
L 251.82112 -69.209841 
L 251.93168 -69.002105 
L 252.042241 -68.794996 
L 252.152801 -68.588725 
L 252.263361 -68.383499 
L 252.373921 -68.179524 
L 252.484481 -67.977006 
L 252.595041 -67.776149 
L 252.705601 -67.577155 
L 252.816162 -67.380224 
L 252.926722 -67.185555 
L 253.037282 -66.993343 
L 253.147842 -66.803783 
L 253.258402 -66.617065 
L 253.368962 -66.433377 
L 253.479522 -66.252904 
L 253.590083 -66.075828 
L 253.700643 -65.902327 
L 253.811203 -65.732576 
L 253.921763 -65.566745 
L 254.032323 -65.405002 
L 254.142883 -65.24751 
L 254.253444 -65.094427 
L 254.364004 -64.945907 
L 254.474564 -64.8021 
L 254.585124 -64.66315 
L 254.695684 -64.529198 
L 254.806244 -64.400379 
L 254.916804 -64.276821 
L 255.027365 -64.15865 
L 255.137925 -64.045985 
L 255.248485 -63.938939 
L 255.359045 -63.837619 
L 255.469605 -63.742128 
L 255.580165 -63.652562 
L 255.690725 -63.569011 
L 255.801286 -63.49156 
L 255.911846 -63.420286 
L 256.022406 -63.35526 
L 256.132966 -63.296549 
L 256.243526 -63.244212 
L 256.354086 -63.198301 
L 256.464646 -63.158863 
L 256.575207 -63.125936 
L 256.685767 -63.099555 
L 256.796327 -63.079746 
L 256.906887 -63.066529 
L 257.017447 -63.059918 
L 257.128007 -63.059918 
L 257.238567 -63.066529 
L 257.349128 -63.079746 
L 257.459688 -63.099555 
L 257.570248 -63.125936 
L 257.680808 -63.158863 
L 257.791368 -63.198301 
L 257.901928 -63.244212 
L 258.012489 -63.296549 
L 258.123049 -63.35526 
L 258.233609 -63.420286 
L 258.344169 -63.49156 
L 258.454729 -63.569011 
L 258.565289 -63.652562 
L 258.675849 -63.742128 
L 258.78641 -63.837619 
L 258.89697 -63.938939 
L 259.00753 -64.045985 
L 259.00753 -70.613258 
L 259.00753 -70.613258 
L 258.89697 -70.506211 
L 258.78641 -70.404892 
L 258.675849 -70.309401 
L 258.565289 -70.219835 
L 258.454729 -70.136284 
L 258.344169 -70.058833 
L 258.233609 -69.987558 
L 258.123049 -69.922533 
L 258.012489 -69.863822 
L 257.901928 -69.811485 
L 257.791368 -69.765574 
L 257.680808 -69.726135 
L 257.570248 -69.693209 
L 257.459688 -69.666828 
L 257.349128 -69.647019 
L 257.238567 -69.633802 
L 257.128007 -69.62719 
L 257.017447 -69.62719 
L 256.906887 -69.633802 
L 256.796327 -69.647019 
L 256.685767 -69.666828 
L 256.575207 -69.693209 
L 256.464646 -69.726135 
L 256.354086 -69.765574 
L 256.243526 -69.811485 
L 256.132966 -69.863822 
L 256.022406 -69.922533 
L 255.911846 -69.987558 
L 255.801286 -70.058833 
L 255.690725 -70.136284 
L 255.580165 -70.219835 
L 255.469605 -70.309401 
L 255.359045 -70.404892 
L 255.248485 -70.506211 
L 255.137925 -70.613258 
L 255.027365 -70.725923 
L 254.916804 -70.844094 
L 254.806244 -70.967651 
L 254.695684 -71.096471 
L 254.585124 -71.230423 
L 254.474564 -71.369372 
L 254.364004 -71.513179 
L 254.253444 -71.661699 
L 254.142883 -71.814782 
L 254.032323 -71.972275 
L 253.921763 -72.134018 
L 253.811203 -72.299848 
L 253.700643 -72.4696 
L 253.590083 -72.643101 
L 253.479522 -72.820177 
L 253.368962 -73.00065 
L 253.258402 -73.184338 
L 253.147842 -73.371056 
L 253.037282 -73.560616 
L 252.926722 -73.752828 
L 252.816162 -73.947497 
L 252.705601 -74.144428 
L 252.595041 -74.343422 
L 252.484481 -74.544279 
L 252.373921 -74.746797 
L 252.263361 -74.950772 
L 252.152801 -75.155998 
L 252.042241 -75.362269 
L 251.93168 -75.569377 
L 251.82112 -75.777114 
L 251.71056 -75.98527 
z
" id="mda55dc12a2" style="stroke:#ffa500;"/>
    </defs>
    <g clip-path="url(#pc557810641)">
     <use style="fill:#ffa500;stroke:#ffa500;" x="0" xlink:href="#mda55dc12a2" y="172"/>
    </g>
   </g>
   <g id="PolyCollection_8">
    <path clip-path="url(#pc557810641)" d="M 251.6 95.806364 
L 251.6 102.373636 
L 251.6 95.806364 
L 251.6 95.806364 
z
" style="fill:#ff7f50;stroke:#ff7f50;"/>
    <path clip-path="url(#pc557810641)" d="M 259.11809 101.274077 
L 259.11809 107.84135 
L 259.22865 107.723179 
L 259.33921 107.599621 
L 259.44977 107.470802 
L 259.560331 107.33685 
L 259.670891 107.1979 
L 259.781451 107.054093 
L 259.892011 106.905573 
L 260.002571 106.75249 
L 260.113131 106.594998 
L 260.223691 106.433255 
L 260.334252 106.267424 
L 260.444812 106.097673 
L 260.555372 105.924172 
L 260.665932 105.747096 
L 260.776492 105.566623 
L 260.887052 105.382935 
L 260.997612 105.196217 
L 261.108173 105.006657 
L 261.218733 104.814445 
L 261.329293 104.619776 
L 261.439853 104.422845 
L 261.550413 104.223851 
L 261.660973 104.022994 
L 261.771534 103.820476 
L 261.882094 103.616501 
L 261.992654 103.411275 
L 262.103214 103.205004 
L 262.213774 102.997895 
L 262.324334 102.790159 
L 262.434894 102.582002 
L 262.545455 102.373636 
L 262.545455 95.806364 
L 262.545455 95.806364 
L 262.434894 96.01473 
L 262.324334 96.222886 
L 262.213774 96.430623 
L 262.103214 96.637731 
L 261.992654 96.844002 
L 261.882094 97.049228 
L 261.771534 97.253203 
L 261.660973 97.455721 
L 261.550413 97.656578 
L 261.439853 97.855572 
L 261.329293 98.052503 
L 261.218733 98.247172 
L 261.108173 98.439384 
L 260.997612 98.628944 
L 260.887052 98.815662 
L 260.776492 98.99935 
L 260.665932 99.179823 
L 260.555372 99.356899 
L 260.444812 99.5304 
L 260.334252 99.700152 
L 260.223691 99.865982 
L 260.113131 100.027725 
L 260.002571 100.185218 
L 259.892011 100.338301 
L 259.781451 100.486821 
L 259.670891 100.630628 
L 259.560331 100.769577 
L 259.44977 100.903529 
L 259.33921 101.032349 
L 259.22865 101.155906 
L 259.11809 101.274077 
z
" style="fill:#ff7f50;stroke:#ff7f50;"/>
   </g>
   <g id="PolyCollection_9">
    <path clip-path="url(#pc557810641)" d="M 317.825528 96.844002 
L 317.825528 103.411275 
L 318.378329 104.422845 
L 318.931129 105.382935 
L 319.48393 106.267424 
L 320.036731 107.054093 
L 320.589532 107.723179 
L 321.142332 108.257872 
L 321.695133 108.64474 
L 322.247934 108.874064 
L 322.800735 108.940082 
L 323.353535 108.841137 
L 323.353535 102.273865 
L 323.353535 102.273865 
L 322.800735 102.37281 
L 322.247934 102.306791 
L 321.695133 102.077467 
L 321.142332 101.690599 
L 320.589532 101.155906 
L 320.036731 100.486821 
L 319.48393 99.700152 
L 318.931129 98.815662 
L 318.378329 97.855572 
L 317.825528 96.844002 
z
" style="fill:#ffa500;stroke:#ffa500;"/>
    <path clip-path="url(#pc557810641)" d="M 333.856749 89.246529 
L 333.856749 95.813802 
L 334.40955 95.945574 
L 334.962351 96.238833 
L 335.515152 96.686211 
L 336.067952 97.276471 
L 336.620753 97.994782 
L 337.173554 98.823101 
L 337.726354 99.740616 
L 338.279155 100.724279 
L 338.831956 101.749377 
L 339.384757 102.790159 
L 339.937557 103.820476 
L 340.490358 104.814445 
L 341.043159 105.747096 
L 341.59596 106.594998 
L 342.14876 107.33685 
L 342.701561 107.954015 
L 343.254362 108.430989 
L 343.807163 108.755788 
L 344.359963 108.920254 
L 344.912764 108.920254 
L 344.912764 102.352981 
L 344.912764 102.352981 
L 344.359963 102.352981 
L 343.807163 102.188515 
L 343.254362 101.863716 
L 342.701561 101.386742 
L 342.14876 100.769577 
L 341.59596 100.027725 
L 341.043159 99.179823 
L 340.490358 98.247172 
L 339.937557 97.253203 
L 339.384757 96.222886 
L 338.831956 95.182105 
L 338.279155 94.157006 
L 337.726354 93.173343 
L 337.173554 92.255828 
L 336.620753 91.42751 
L 336.067952 90.709198 
L 335.515152 90.118939 
L 334.962351 89.67156 
L 334.40955 89.378301 
L 333.856749 89.246529 
z
" style="fill:#ffa500;stroke:#ffa500;"/>
    <path clip-path="url(#pc557810641)" d="M 355.968779 89.279555 
L 355.968779 95.846828 
L 356.521579 96.043822 
L 357.07438 96.399835 
L 357.627181 96.905923 
L 358.179982 97.549372 
L 358.732782 98.314018 
L 359.285583 99.18065 
L 359.838384 100.127497 
L 360.391185 101.130772 
L 360.943985 102.16527 
L 361.496786 103.205004 
L 362.049587 104.223851 
L 362.602388 105.196217 
L 363.155188 106.097673 
L 363.707989 106.905573 
L 364.26079 107.599621 
L 364.81359 108.162381 
L 365.366391 108.579714 
L 365.919192 108.841137 
L 366.471993 108.940082 
L 367.024793 108.874064 
L 367.024793 102.306791 
L 367.024793 102.306791 
L 366.471993 102.37281 
L 365.919192 102.273865 
L 365.366391 102.012442 
L 364.81359 101.595108 
L 364.26079 101.032349 
L 363.707989 100.338301 
L 363.155188 99.5304 
L 362.602388 98.628944 
L 362.049587 97.656578 
L 361.496786 96.637731 
L 360.943985 95.597998 
L 360.391185 94.563499 
L 359.838384 93.560224 
L 359.285583 92.613377 
L 358.732782 91.746745 
L 358.179982 90.9821 
L 357.627181 90.33865 
L 357.07438 89.832562 
L 356.521579 89.476549 
L 355.968779 89.279555 
z
" style="fill:#ffa500;stroke:#ffa500;"/>
   </g>
   <g id="PolyCollection_10">
    <path clip-path="url(#pc557810641)" d="M 317.272727 95.806364 
L 317.272727 102.373636 
L 317.272727 95.806364 
L 317.272727 95.806364 
z
" style="fill:#ff7f50;stroke:#ff7f50;"/>
    <path clip-path="url(#pc557810641)" d="M 323.906336 102.012442 
L 323.906336 108.579714 
L 324.459137 108.162381 
L 325.011938 107.599621 
L 325.564738 106.905573 
L 326.117539 106.097673 
L 326.67034 105.196217 
L 327.22314 104.223851 
L 327.775941 103.205004 
L 328.328742 102.16527 
L 328.881543 101.130772 
L 329.434343 100.127497 
L 329.987144 99.18065 
L 330.539945 98.314018 
L 331.092746 97.549372 
L 331.645546 96.905923 
L 332.198347 96.399835 
L 332.751148 96.043822 
L 333.303949 95.846828 
L 333.303949 89.279555 
L 333.303949 89.279555 
L 332.751148 89.476549 
L 332.198347 89.832562 
L 331.645546 90.33865 
L 331.092746 90.9821 
L 330.539945 91.746745 
L 329.987144 92.613377 
L 329.434343 93.560224 
L 328.881543 94.563499 
L 328.328742 95.597998 
L 327.775941 96.637731 
L 327.22314 97.656578 
L 326.67034 98.628944 
L 326.117539 99.5304 
L 325.564738 100.338301 
L 325.011938 101.032349 
L 324.459137 101.595108 
L 323.906336 102.012442 
z
" style="fill:#ff7f50;stroke:#ff7f50;"/>
    <path clip-path="url(#pc557810641)" d="M 345.465565 102.188515 
L 345.465565 108.755788 
L 346.018365 108.430989 
L 346.571166 107.954015 
L 347.123967 107.33685 
L 347.676768 106.594998 
L 348.229568 105.747096 
L 348.782369 104.814445 
L 349.33517 103.820476 
L 349.887971 102.790159 
L 350.440771 101.749377 
L 350.993572 100.724279 
L 351.546373 99.740616 
L 352.099174 98.823101 
L 352.651974 97.994782 
L 353.204775 97.276471 
L 353.757576 96.686211 
L 354.310376 96.238833 
L 354.863177 95.945574 
L 355.415978 95.813802 
L 355.415978 89.246529 
L 355.415978 89.246529 
L 354.863177 89.378301 
L 354.310376 89.67156 
L 353.757576 90.118939 
L 353.204775 90.709198 
L 352.651974 91.42751 
L 352.099174 92.255828 
L 351.546373 93.173343 
L 350.993572 94.157006 
L 350.440771 95.182105 
L 349.887971 96.222886 
L 349.33517 97.253203 
L 348.782369 98.247172 
L 348.229568 99.179823 
L 347.676768 100.027725 
L 347.123967 100.769577 
L 346.571166 101.386742 
L 346.018365 101.863716 
L 345.465565 102.188515 
z
" style="fill:#ff7f50;stroke:#ff7f50;"/>
    <path clip-path="url(#pc557810641)" d="M 367.577594 102.077467 
L 367.577594 108.64474 
L 368.130395 108.257872 
L 368.683196 107.723179 
L 369.235996 107.054093 
L 369.788797 106.267424 
L 370.341598 105.382935 
L 370.894399 104.422845 
L 371.447199 103.411275 
L 372 102.373636 
L 372 95.806364 
L 372 95.806364 
L 371.447199 96.844002 
L 370.894399 97.855572 
L 370.341598 98.815662 
L 369.788797 99.700152 
L 369.235996 100.486821 
L 368.683196 101.155906 
L 368.130395 101.690599 
L 367.577594 102.077467 
z
" style="fill:#ff7f50;stroke:#ff7f50;"/>
   </g>
   <g id="PolyCollection_11">
    <path clip-path="url(#pc557810641)" d="M 427.280073 96.844002 
L 427.280073 103.411275 
L 427.832874 104.422845 
L 428.385675 105.382935 
L 428.938476 106.267424 
L 429.491276 107.054093 
L 430.044077 107.723179 
L 430.596878 108.257872 
L 431.149679 108.64474 
L 431.702479 108.874064 
L 432.25528 108.940082 
L 432.808081 108.841137 
L 432.808081 102.273865 
L 432.808081 102.273865 
L 432.25528 102.37281 
L 431.702479 102.306791 
L 431.149679 102.077467 
L 430.596878 101.690599 
L 430.044077 101.155906 
L 429.491276 100.486821 
L 428.938476 99.700152 
L 428.385675 98.815662 
L 427.832874 97.855572 
L 427.280073 96.844002 
z
" style="fill:#ffa500;stroke:#ffa500;"/>
    <path clip-path="url(#pc557810641)" d="M 443.311295 89.246529 
L 443.311295 95.813802 
L 443.864096 95.945574 
L 444.416896 96.238833 
L 444.969697 96.686211 
L 445.522498 97.276471 
L 446.075298 97.994782 
L 446.628099 98.823101 
L 447.1809 99.740616 
L 447.733701 100.724279 
L 448.286501 101.749377 
L 448.839302 102.790159 
L 449.392103 103.820476 
L 449.944904 104.814445 
L 450.497704 105.747096 
L 451.050505 106.594998 
L 451.603306 107.33685 
L 452.156107 107.954015 
L 452.708907 108.430989 
L 453.261708 108.755788 
L 453.814509 108.920254 
L 454.367309 108.920254 
L 454.367309 102.352981 
L 454.367309 102.352981 
L 453.814509 102.352981 
L 453.261708 102.188515 
L 452.708907 101.863716 
L 452.156107 101.386742 
L 451.603306 100.769577 
L 451.050505 100.027725 
L 450.497704 99.179823 
L 449.944904 98.247172 
L 449.392103 97.253203 
L 448.839302 96.222886 
L 448.286501 95.182105 
L 447.733701 94.157006 
L 447.1809 93.173343 
L 446.628099 92.255828 
L 446.075298 91.42751 
L 445.522498 90.709198 
L 444.969697 90.118939 
L 444.416896 89.67156 
L 443.864096 89.378301 
L 443.311295 89.246529 
z
" style="fill:#ffa500;stroke:#ffa500;"/>
    <path clip-path="url(#pc557810641)" d="M 465.423324 89.279555 
L 465.423324 95.846828 
L 465.976125 96.043822 
L 466.528926 96.399835 
L 467.081726 96.905923 
L 467.634527 97.549372 
L 468.187328 98.314018 
L 468.740129 99.18065 
L 469.292929 100.127497 
L 469.84573 101.130772 
L 470.398531 102.16527 
L 470.951331 103.205004 
L 471.504132 104.223851 
L 472.056933 105.196217 
L 472.609734 106.097673 
L 473.162534 106.905573 
L 473.715335 107.599621 
L 474.268136 108.162381 
L 474.820937 108.579714 
L 475.373737 108.841137 
L 475.926538 108.940082 
L 476.479339 108.874064 
L 476.479339 102.306791 
L 476.479339 102.306791 
L 475.926538 102.37281 
L 475.373737 102.273865 
L 474.820937 102.012442 
L 474.268136 101.595108 
L 473.715335 101.032349 
L 473.162534 100.338301 
L 472.609734 99.5304 
L 472.056933 98.628944 
L 471.504132 97.656578 
L 470.951331 96.637731 
L 470.398531 95.597998 
L 469.84573 94.563499 
L 469.292929 93.560224 
L 468.740129 92.613377 
L 468.187328 91.746745 
L 467.634527 90.9821 
L 467.081726 90.33865 
L 466.528926 89.832562 
L 465.976125 89.476549 
L 465.423324 89.279555 
z
" style="fill:#ffa500;stroke:#ffa500;"/>
   </g>
   <g id="PolyCollection_12">
    <path clip-path="url(#pc557810641)" d="M 426.727273 95.806364 
L 426.727273 102.373636 
L 426.727273 95.806364 
L 426.727273 95.806364 
z
" style="fill:#ff7f50;stroke:#ff7f50;"/>
    <path clip-path="url(#pc557810641)" d="M 433.360882 102.012442 
L 433.360882 108.579714 
L 433.913682 108.162381 
L 434.466483 107.599621 
L 435.019284 106.905573 
L 435.572084 106.097673 
L 436.124885 105.196217 
L 436.677686 104.223851 
L 437.230487 103.205004 
L 437.783287 102.16527 
L 438.336088 101.130772 
L 438.888889 100.127497 
L 439.44169 99.18065 
L 439.99449 98.314018 
L 440.547291 97.549372 
L 441.100092 96.905923 
L 441.652893 96.399835 
L 442.205693 96.043822 
L 442.758494 95.846828 
L 442.758494 89.279555 
L 442.758494 89.279555 
L 442.205693 89.476549 
L 441.652893 89.832562 
L 441.100092 90.33865 
L 440.547291 90.9821 
L 439.99449 91.746745 
L 439.44169 92.613377 
L 438.888889 93.560224 
L 438.336088 94.563499 
L 437.783287 95.597998 
L 437.230487 96.637731 
L 436.677686 97.656578 
L 436.124885 98.628944 
L 435.572084 99.5304 
L 435.019284 100.338301 
L 434.466483 101.032349 
L 433.913682 101.595108 
L 433.360882 102.012442 
z
" style="fill:#ff7f50;stroke:#ff7f50;"/>
    <path clip-path="url(#pc557810641)" d="M 454.92011 102.188515 
L 454.92011 108.755788 
L 455.472911 108.430989 
L 456.025712 107.954015 
L 456.578512 107.33685 
L 457.131313 106.594998 
L 457.684114 105.747096 
L 458.236915 104.814445 
L 458.789715 103.820476 
L 459.342516 102.790159 
L 459.895317 101.749377 
L 460.448118 100.724279 
L 461.000918 99.740616 
L 461.553719 98.823101 
L 462.10652 97.994782 
L 462.65932 97.276471 
L 463.212121 96.686211 
L 463.764922 96.238833 
L 464.317723 95.945574 
L 464.870523 95.813802 
L 464.870523 89.246529 
L 464.870523 89.246529 
L 464.317723 89.378301 
L 463.764922 89.67156 
L 463.212121 90.118939 
L 462.65932 90.709198 
L 462.10652 91.42751 
L 461.553719 92.255828 
L 461.000918 93.173343 
L 460.448118 94.157006 
L 459.895317 95.182105 
L 459.342516 96.222886 
L 458.789715 97.253203 
L 458.236915 98.247172 
L 457.684114 99.179823 
L 457.131313 100.027725 
L 456.578512 100.769577 
L 456.025712 101.386742 
L 455.472911 101.863716 
L 454.92011 102.188515 
z
" style="fill:#ff7f50;stroke:#ff7f50;"/>
    <path clip-path="url(#pc557810641)" d="M 477.03214 102.077467 
L 477.03214 108.64474 
L 477.58494 108.257872 
L 478.137741 107.723179 
L 478.690542 107.054093 
L 479.243343 106.267424 
L 479.796143 105.382935 
L 480.348944 104.422845 
L 480.901745 103.411275 
L 481.454545 102.373636 
L 481.454545 95.806364 
L 481.454545 95.806364 
L 480.901745 96.844002 
L 480.348944 97.855572 
L 479.796143 98.815662 
L 479.243343 99.700152 
L 478.690542 100.486821 
L 478.137741 101.155906 
L 477.58494 101.690599 
L 477.03214 102.077467 
z
" style="fill:#ff7f50;stroke:#ff7f50;"/>
   </g>
   <g id="PolyCollection_13">
    <defs>
     <path d="M 492.51056 -75.98527 
L 492.51056 -69.417998 
L 492.62112 -69.209841 
L 492.73168 -69.002105 
L 492.842241 -68.794996 
L 492.952801 -68.588725 
L 493.063361 -68.383499 
L 493.173921 -68.179524 
L 493.284481 -67.977006 
L 493.395041 -67.776149 
L 493.505601 -67.577155 
L 493.616162 -67.380224 
L 493.726722 -67.185555 
L 493.837282 -66.993343 
L 493.947842 -66.803783 
L 494.058402 -66.617065 
L 494.168962 -66.433377 
L 494.279522 -66.252904 
L 494.390083 -66.075828 
L 494.500643 -65.902327 
L 494.611203 -65.732576 
L 494.721763 -65.566745 
L 494.832323 -65.405002 
L 494.942883 -65.24751 
L 495.053444 -65.094427 
L 495.164004 -64.945907 
L 495.274564 -64.8021 
L 495.385124 -64.66315 
L 495.495684 -64.529198 
L 495.606244 -64.400379 
L 495.716804 -64.276821 
L 495.827365 -64.15865 
L 495.937925 -64.045985 
L 496.048485 -63.938939 
L 496.159045 -63.837619 
L 496.269605 -63.742128 
L 496.380165 -63.652562 
L 496.490725 -63.569011 
L 496.601286 -63.49156 
L 496.711846 -63.420286 
L 496.822406 -63.35526 
L 496.932966 -63.296549 
L 497.043526 -63.244212 
L 497.154086 -63.198301 
L 497.264646 -63.158863 
L 497.375207 -63.125936 
L 497.485767 -63.099555 
L 497.596327 -63.079746 
L 497.706887 -63.066529 
L 497.817447 -63.059918 
L 497.928007 -63.059918 
L 498.038567 -63.066529 
L 498.149128 -63.079746 
L 498.259688 -63.099555 
L 498.370248 -63.125936 
L 498.480808 -63.158863 
L 498.591368 -63.198301 
L 498.701928 -63.244212 
L 498.812489 -63.296549 
L 498.923049 -63.35526 
L 499.033609 -63.420286 
L 499.144169 -63.49156 
L 499.254729 -63.569011 
L 499.365289 -63.652562 
L 499.475849 -63.742128 
L 499.58641 -63.837619 
L 499.69697 -63.938939 
L 499.80753 -64.045985 
L 499.80753 -70.613258 
L 499.80753 -70.613258 
L 499.69697 -70.506211 
L 499.58641 -70.404892 
L 499.475849 -70.309401 
L 499.365289 -70.219835 
L 499.254729 -70.136284 
L 499.144169 -70.058833 
L 499.033609 -69.987558 
L 498.923049 -69.922533 
L 498.812489 -69.863822 
L 498.701928 -69.811485 
L 498.591368 -69.765574 
L 498.480808 -69.726135 
L 498.370248 -69.693209 
L 498.259688 -69.666828 
L 498.149128 -69.647019 
L 498.038567 -69.633802 
L 497.928007 -69.62719 
L 497.817447 -69.62719 
L 497.706887 -69.633802 
L 497.596327 -69.647019 
L 497.485767 -69.666828 
L 497.375207 -69.693209 
L 497.264646 -69.726135 
L 497.154086 -69.765574 
L 497.043526 -69.811485 
L 496.932966 -69.863822 
L 496.822406 -69.922533 
L 496.711846 -69.987558 
L 496.601286 -70.058833 
L 496.490725 -70.136284 
L 496.380165 -70.219835 
L 496.269605 -70.309401 
L 496.159045 -70.404892 
L 496.048485 -70.506211 
L 495.937925 -70.613258 
L 495.827365 -70.725923 
L 495.716804 -70.844094 
L 495.606244 -70.967651 
L 495.495684 -71.096471 
L 495.385124 -71.230423 
L 495.274564 -71.369372 
L 495.164004 -71.513179 
L 495.053444 -71.661699 
L 494.942883 -71.814782 
L 494.832323 -71.972275 
L 494.721763 -72.134018 
L 494.611203 -72.299848 
L 494.500643 -72.4696 
L 494.390083 -72.643101 
L 494.279522 -72.820177 
L 494.168962 -73.00065 
L 494.058402 -73.184338 
L 493.947842 -73.371056 
L 493.837282 -73.560616 
L 493.726722 -73.752828 
L 493.616162 -73.947497 
L 493.505601 -74.144428 
L 493.395041 -74.343422 
L 493.284481 -74.544279 
L 493.173921 -74.746797 
L 493.063361 -74.950772 
L 492.952801 -75.155998 
L 492.842241 -75.362269 
L 492.73168 -75.569377 
L 492.62112 -75.777114 
L 492.51056 -75.98527 
z
" id="meabbb37023" style="stroke:#ffa500;"/>
    </defs>
    <g clip-path="url(#pc557810641)">
     <use style="fill:#ffa500;stroke:#ffa500;" x="0" xlink:href="#meabbb37023" y="172"/>
    </g>
   </g>
   <g id="PolyCollection_14">
    <path clip-path="url(#pc557810641)" d="M 492.4 95.806364 
L 492.4 102.373636 
L 492.4 95.806364 
L 492.4 95.806364 
z
" style="fill:#ff7f50;stroke:#ff7f50;"/>
    <path clip-path="url(#pc557810641)" d="M 499.91809 101.274077 
L 499.91809 107.84135 
L 500.02865 107.723179 
L 500.13921 107.599621 
L 500.24977 107.470802 
L 500.360331 107.33685 
L 500.470891 107.1979 
L 500.581451 107.054093 
L 500.692011 106.905573 
L 500.802571 106.75249 
L 500.913131 106.594998 
L 501.023691 106.433255 
L 501.134252 106.267424 
L 501.244812 106.097673 
L 501.355372 105.924172 
L 501.465932 105.747096 
L 501.576492 105.566623 
L 501.687052 105.382935 
L 501.797612 105.196217 
L 501.908173 105.006657 
L 502.018733 104.814445 
L 502.129293 104.619776 
L 502.239853 104.422845 
L 502.350413 104.223851 
L 502.460973 104.022994 
L 502.571534 103.820476 
L 502.682094 103.616501 
L 502.792654 103.411275 
L 502.903214 103.205004 
L 503.013774 102.997895 
L 503.124334 102.790159 
L 503.234894 102.582002 
L 503.345455 102.373636 
L 503.345455 95.806364 
L 503.345455 95.806364 
L 503.234894 96.01473 
L 503.124334 96.222886 
L 503.013774 96.430623 
L 502.903214 96.637731 
L 502.792654 96.844002 
L 502.682094 97.049228 
L 502.571534 97.253203 
L 502.460973 97.455721 
L 502.350413 97.656578 
L 502.239853 97.855572 
L 502.129293 98.052503 
L 502.018733 98.247172 
L 501.908173 98.439384 
L 501.797612 98.628944 
L 501.687052 98.815662 
L 501.576492 98.99935 
L 501.465932 99.179823 
L 501.355372 99.356899 
L 501.244812 99.5304 
L 501.134252 99.700152 
L 501.023691 99.865982 
L 500.913131 100.027725 
L 500.802571 100.185218 
L 500.692011 100.338301 
L 500.581451 100.486821 
L 500.470891 100.630628 
L 500.360331 100.769577 
L 500.24977 100.903529 
L 500.13921 101.032349 
L 500.02865 101.155906 
L 499.91809 101.274077 
z
" style="fill:#ff7f50;stroke:#ff7f50;"/>
   </g>
   <g id="PolyCollection_15">
    <path clip-path="url(#pc557810641)" d="M 558.625528 96.844002 
L 558.625528 103.411275 
L 559.178329 104.422845 
L 559.731129 105.382935 
L 560.28393 106.267424 
L 560.836731 107.054093 
L 561.389532 107.723179 
L 561.942332 108.257872 
L 562.495133 108.64474 
L 563.047934 108.874064 
L 563.600735 108.940082 
L 564.153535 108.841137 
L 564.153535 102.273865 
L 564.153535 102.273865 
L 563.600735 102.37281 
L 563.047934 102.306791 
L 562.495133 102.077467 
L 561.942332 101.690599 
L 561.389532 101.155906 
L 560.836731 100.486821 
L 560.28393 99.700152 
L 559.731129 98.815662 
L 559.178329 97.855572 
L 558.625528 96.844002 
z
" style="fill:#ffa500;stroke:#ffa500;"/>
    <path clip-path="url(#pc557810641)" d="M 574.656749 89.246529 
L 574.656749 95.813802 
L 575.20955 95.945574 
L 575.762351 96.238833 
L 576.315152 96.686211 
L 576.867952 97.276471 
L 577.420753 97.994782 
L 577.973554 98.823101 
L 578.526354 99.740616 
L 579.079155 100.724279 
L 579.631956 101.749377 
L 580.184757 102.790159 
L 580.737557 103.820476 
L 581.290358 104.814445 
L 581.843159 105.747096 
L 582.39596 106.594998 
L 582.94876 107.33685 
L 583.501561 107.954015 
L 584.054362 108.430989 
L 584.607163 108.755788 
L 585.159963 108.920254 
L 585.712764 108.920254 
L 585.712764 102.352981 
L 585.712764 102.352981 
L 585.159963 102.352981 
L 584.607163 102.188515 
L 584.054362 101.863716 
L 583.501561 101.386742 
L 582.94876 100.769577 
L 582.39596 100.027725 
L 581.843159 99.179823 
L 581.290358 98.247172 
L 580.737557 97.253203 
L 580.184757 96.222886 
L 579.631956 95.182105 
L 579.079155 94.157006 
L 578.526354 93.173343 
L 577.973554 92.255828 
L 577.420753 91.42751 
L 576.867952 90.709198 
L 576.315152 90.118939 
L 575.762351 89.67156 
L 575.20955 89.378301 
L 574.656749 89.246529 
z
" style="fill:#ffa500;stroke:#ffa500;"/>
    <path clip-path="url(#pc557810641)" d="M 596.768779 89.279555 
L 596.768779 95.846828 
L 597.321579 96.043822 
L 597.87438 96.399835 
L 598.427181 96.905923 
L 598.979982 97.549372 
L 599.532782 98.314018 
L 600.085583 99.18065 
L 600.638384 100.127497 
L 601.191185 101.130772 
L 601.743985 102.16527 
L 602.296786 103.205004 
L 602.849587 104.223851 
L 603.402388 105.196217 
L 603.955188 106.097673 
L 604.507989 106.905573 
L 605.06079 107.599621 
L 605.61359 108.162381 
L 606.166391 108.579714 
L 606.719192 108.841137 
L 607.271993 108.940082 
L 607.824793 108.874064 
L 607.824793 102.306791 
L 607.824793 102.306791 
L 607.271993 102.37281 
L 606.719192 102.273865 
L 606.166391 102.012442 
L 605.61359 101.595108 
L 605.06079 101.032349 
L 604.507989 100.338301 
L 603.955188 99.5304 
L 603.402388 98.628944 
L 602.849587 97.656578 
L 602.296786 96.637731 
L 601.743985 95.597998 
L 601.191185 94.563499 
L 600.638384 93.560224 
L 600.085583 92.613377 
L 599.532782 91.746745 
L 598.979982 90.9821 
L 598.427181 90.33865 
L 597.87438 89.832562 
L 597.321579 89.476549 
L 596.768779 89.279555 
z
" style="fill:#ffa500;stroke:#ffa500;"/>
   </g>
   <g id="PolyCollection_16">
    <path clip-path="url(#pc557810641)" d="M 558.072727 95.806364 
L 558.072727 102.373636 
L 558.072727 95.806364 
L 558.072727 95.806364 
z
" style="fill:#ff7f50;stroke:#ff7f50;"/>
    <path clip-path="url(#pc557810641)" d="M 564.706336 102.012442 
L 564.706336 108.579714 
L 565.259137 108.162381 
L 565.811938 107.599621 
L 566.364738 106.905573 
L 566.917539 106.097673 
L 567.47034 105.196217 
L 568.02314 104.223851 
L 568.575941 103.205004 
L 569.128742 102.16527 
L 569.681543 101.130772 
L 570.234343 100.127497 
L 570.787144 99.18065 
L 571.339945 98.314018 
L 571.892746 97.549372 
L 572.445546 96.905923 
L 572.998347 96.399835 
L 573.551148 96.043822 
L 574.103949 95.846828 
L 574.103949 89.279555 
L 574.103949 89.279555 
L 573.551148 89.476549 
L 572.998347 89.832562 
L 572.445546 90.33865 
L 571.892746 90.9821 
L 571.339945 91.746745 
L 570.787144 92.613377 
L 570.234343 93.560224 
L 569.681543 94.563499 
L 569.128742 95.597998 
L 568.575941 96.637731 
L 568.02314 97.656578 
L 567.47034 98.628944 
L 566.917539 99.5304 
L 566.364738 100.338301 
L 565.811938 101.032349 
L 565.259137 101.595108 
L 564.706336 102.012442 
z
" style="fill:#ff7f50;stroke:#ff7f50;"/>
    <path clip-path="url(#pc557810641)" d="M 586.265565 102.188515 
L 586.265565 108.755788 
L 586.818365 108.430989 
L 587.371166 107.954015 
L 587.923967 107.33685 
L 588.476768 106.594998 
L 589.029568 105.747096 
L 589.582369 104.814445 
L 590.13517 103.820476 
L 590.687971 102.790159 
L 591.240771 101.749377 
L 591.793572 100.724279 
L 592.346373 99.740616 
L 592.899174 98.823101 
L 593.451974 97.994782 
L 594.004775 97.276471 
L 594.557576 96.686211 
L 595.110376 96.238833 
L 595.663177 95.945574 
L 596.215978 95.813802 
L 596.215978 89.246529 
L 596.215978 89.246529 
L 595.663177 89.378301 
L 595.110376 89.67156 
L 594.557576 90.118939 
L 594.004775 90.709198 
L 593.451974 91.42751 
L 592.899174 92.255828 
L 592.346373 93.173343 
L 591.793572 94.157006 
L 591.240771 95.182105 
L 590.687971 96.222886 
L 590.13517 97.253203 
L 589.582369 98.247172 
L 589.029568 99.179823 
L 588.476768 100.027725 
L 587.923967 100.769577 
L 587.371166 101.386742 
L 586.818365 101.863716 
L 586.265565 102.188515 
z
" style="fill:#ff7f50;stroke:#ff7f50;"/>
    <path clip-path="url(#pc557810641)" d="M 608.377594 102.077467 
L 608.377594 108.64474 
L 608.930395 108.257872 
L 609.483196 107.723179 
L 610.035996 107.054093 
L 610.588797 106.267424 
L 611.141598 105.382935 
L 611.694399 104.422845 
L 612.247199 103.411275 
L 612.8 102.373636 
L 612.8 95.806364 
L 612.8 95.806364 
L 612.247199 96.844002 
L 611.694399 97.855572 
L 611.141598 98.815662 
L 610.588797 99.700152 
L 610.035996 100.486821 
L 609.483196 101.155906 
L 608.930395 101.690599 
L 608.377594 102.077467 
z
" style="fill:#ff7f50;stroke:#ff7f50;"/>
   </g>
   <g id="PolyCollection_17">
    <path clip-path="url(#pc557810641)" d="M 668.080073 96.844002 
L 668.080073 103.411275 
L 668.632874 104.422845 
L 669.185675 105.382935 
L 669.738476 106.267424 
L 670.291276 107.054093 
L 670.844077 107.723179 
L 671.396878 108.257872 
L 671.949679 108.64474 
L 672.502479 108.874064 
L 673.05528 108.940082 
L 673.608081 108.841137 
L 673.608081 102.273865 
L 673.608081 102.273865 
L 673.05528 102.37281 
L 672.502479 102.306791 
L 671.949679 102.077467 
L 671.396878 101.690599 
L 670.844077 101.155906 
L 670.291276 100.486821 
L 669.738476 99.700152 
L 669.185675 98.815662 
L 668.632874 97.855572 
L 668.080073 96.844002 
z
" style="fill:#ffa500;stroke:#ffa500;"/>
    <path clip-path="url(#pc557810641)" d="M 684.111295 89.246529 
L 684.111295 95.813802 
L 684.664096 95.945574 
L 685.216896 96.238833 
L 685.769697 96.686211 
L 686.322498 97.276471 
L 686.875298 97.994782 
L 687.428099 98.823101 
L 687.9809 99.740616 
L 688.533701 100.724279 
L 689.086501 101.749377 
L 689.639302 102.790159 
L 690.192103 103.820476 
L 690.744904 104.814445 
L 691.297704 105.747096 
L 691.850505 106.594998 
L 692.403306 107.33685 
L 692.956107 107.954015 
L 693.508907 108.430989 
L 694.061708 108.755788 
L 694.614509 108.920254 
L 695.167309 108.920254 
L 695.167309 102.352981 
L 695.167309 102.352981 
L 694.614509 102.352981 
L 694.061708 102.188515 
L 693.508907 101.863716 
L 692.956107 101.386742 
L 692.403306 100.769577 
L 691.850505 100.027725 
L 691.297704 99.179823 
L 690.744904 98.247172 
L 690.192103 97.253203 
L 689.639302 96.222886 
L 689.086501 95.182105 
L 688.533701 94.157006 
L 687.9809 93.173343 
L 687.428099 92.255828 
L 686.875298 91.42751 
L 686.322498 90.709198 
L 685.769697 90.118939 
L 685.216896 89.67156 
L 684.664096 89.378301 
L 684.111295 89.246529 
z
" style="fill:#ffa500;stroke:#ffa500;"/>
    <path clip-path="url(#pc557810641)" d="M 706.223324 89.279555 
L 706.223324 95.846828 
L 706.776125 96.043822 
L 707.328926 96.399835 
L 707.881726 96.905923 
L 708.434527 97.549372 
L 708.987328 98.314018 
L 709.540129 99.18065 
L 710.092929 100.127497 
L 710.64573 101.130772 
L 711.198531 102.16527 
L 711.751331 103.205004 
L 712.304132 104.223851 
L 712.856933 105.196217 
L 713.409734 106.097673 
L 713.962534 106.905573 
L 714.515335 107.599621 
L 715.068136 108.162381 
L 715.620937 108.579714 
L 716.173737 108.841137 
L 716.726538 108.940082 
L 717.279339 108.874064 
L 717.279339 102.306791 
L 717.279339 102.306791 
L 716.726538 102.37281 
L 716.173737 102.273865 
L 715.620937 102.012442 
L 715.068136 101.595108 
L 714.515335 101.032349 
L 713.962534 100.338301 
L 713.409734 99.5304 
L 712.856933 98.628944 
L 712.304132 97.656578 
L 711.751331 96.637731 
L 711.198531 95.597998 
L 710.64573 94.563499 
L 710.092929 93.560224 
L 709.540129 92.613377 
L 708.987328 91.746745 
L 708.434527 90.9821 
L 707.881726 90.33865 
L 707.328926 89.832562 
L 706.776125 89.476549 
L 706.223324 89.279555 
z
" style="fill:#ffa500;stroke:#ffa500;"/>
   </g>
   <g id="PolyCollection_18">
    <path clip-path="url(#pc557810641)" d="M 667.527273 95.806364 
L 667.527273 102.373636 
L 667.527273 95.806364 
L 667.527273 95.806364 
z
" style="fill:#ff7f50;stroke:#ff7f50;"/>
    <path clip-path="url(#pc557810641)" d="M 674.160882 102.012442 
L 674.160882 108.579714 
L 674.713682 108.162381 
L 675.266483 107.599621 
L 675.819284 106.905573 
L 676.372084 106.097673 
L 676.924885 105.196217 
L 677.477686 104.223851 
L 678.030487 103.205004 
L 678.583287 102.16527 
L 679.136088 101.130772 
L 679.688889 100.127497 
L 680.24169 99.18065 
L 680.79449 98.314018 
L 681.347291 97.549372 
L 681.900092 96.905923 
L 682.452893 96.399835 
L 683.005693 96.043822 
L 683.558494 95.846828 
L 683.558494 89.279555 
L 683.558494 89.279555 
L 683.005693 89.476549 
L 682.452893 89.832562 
L 681.900092 90.33865 
L 681.347291 90.9821 
L 680.79449 91.746745 
L 680.24169 92.613377 
L 679.688889 93.560224 
L 679.136088 94.563499 
L 678.583287 95.597998 
L 678.030487 96.637731 
L 677.477686 97.656578 
L 676.924885 98.628944 
L 676.372084 99.5304 
L 675.819284 100.338301 
L 675.266483 101.032349 
L 674.713682 101.595108 
L 674.160882 102.012442 
z
" style="fill:#ff7f50;stroke:#ff7f50;"/>
    <path clip-path="url(#pc557810641)" d="M 695.72011 102.188515 
L 695.72011 108.755788 
L 696.272911 108.430989 
L 696.825712 107.954015 
L 697.378512 107.33685 
L 697.931313 106.594998 
L 698.484114 105.747096 
L 699.036915 104.814445 
L 699.589715 103.820476 
L 700.142516 102.790159 
L 700.695317 101.749377 
L 701.248118 100.724279 
L 701.800918 99.740616 
L 702.353719 98.823101 
L 702.90652 97.994782 
L 703.45932 97.276471 
L 704.012121 96.686211 
L 704.564922 96.238833 
L 705.117723 95.945574 
L 705.670523 95.813802 
L 705.670523 89.246529 
L 705.670523 89.246529 
L 705.117723 89.378301 
L 704.564922 89.67156 
L 704.012121 90.118939 
L 703.45932 90.709198 
L 702.90652 91.42751 
L 702.353719 92.255828 
L 701.800918 93.173343 
L 701.248118 94.157006 
L 700.695317 95.182105 
L 700.142516 96.222886 
L 699.589715 97.253203 
L 699.036915 98.247172 
L 698.484114 99.179823 
L 697.931313 100.027725 
L 697.378512 100.769577 
L 696.825712 101.386742 
L 696.272911 101.863716 
L 695.72011 102.188515 
z
" style="fill:#ff7f50;stroke:#ff7f50;"/>
    <path clip-path="url(#pc557810641)" d="M 717.83214 102.077467 
L 717.83214 108.64474 
L 718.38494 108.257872 
L 718.937741 107.723179 
L 719.490542 107.054093 
L 720.043343 106.267424 
L 720.596143 105.382935 
L 721.148944 104.422845 
L 721.701745 103.411275 
L 722.254545 102.373636 
L 722.254545 95.806364 
L 722.254545 95.806364 
L 721.701745 96.844002 
L 721.148944 97.855572 
L 720.596143 98.815662 
L 720.043343 99.700152 
L 719.490542 100.486821 
L 718.937741 101.155906 
L 718.38494 101.690599 
L 717.83214 102.077467 
z
" style="fill:#ff7f50;stroke:#ff7f50;"/>
   </g>
   <g id="patch_3">
    <path clip-path="url(#pc557810641)" d="M 78.661818 99.09 
L 73.189091 107.299091 
L 73.189091 103.468182 
L 21.745455 103.468182 
L 21.745455 94.711818 
L 73.189091 94.711818 
L 73.189091 90.880909 
z
" style="fill:#4b0082;stroke:#4b0082;stroke-linejoin:miter;"/>
   </g>
   <g id="patch_4">
    <path clip-path="url(#pc557810641)" d="M 188.116364 99.09 
L 182.643636 107.299091 
L 182.643636 103.468182 
L 142.145455 103.468182 
L 142.145455 94.711818 
L 182.643636 94.711818 
L 182.643636 90.880909 
z
" style="fill:#4b0082;stroke:#4b0082;stroke-linejoin:miter;"/>
   </g>
   <g id="patch_5">
    <path clip-path="url(#pc557810641)" d="M 319.461818 99.09 
L 313.989091 107.299091 
L 313.989091 103.468182 
L 262.545455 103.468182 
L 262.545455 94.711818 
L 313.989091 94.711818 
L 313.989091 90.880909 
z
" style="fill:#4b0082;stroke:#4b0082;stroke-linejoin:miter;"/>
   </g>
   <g id="patch_6">
    <path clip-path="url(#pc557810641)" d="M 428.916364 99.09 
L 423.443636 107.299091 
L 423.443636 103.468182 
L 382.945455 103.468182 
L 382.945455 94.711818 
L 423.443636 94.711818 
L 423.443636 90.880909 
z
" style="fill:#4b0082;stroke:#4b0082;stroke-linejoin:miter;"/>
   </g>
   <g id="patch_7">
    <path clip-path="url(#pc557810641)" d="M 560.261818 99.09 
L 554.789091 107.299091 
L 554.789091 103.468182 
L 503.345455 103.468182 
L 503.345455 94.711818 
L 554.789091 94.711818 
L 554.789091 90.880909 
z
" style="fill:#4b0082;stroke:#4b0082;stroke-linejoin:miter;"/>
   </g>
   <g id="patch_8">
    <path clip-path="url(#pc557810641)" d="M 669.716364 99.09 
L 664.243636 107.299091 
L 664.243636 103.468182 
L 623.745455 103.468182 
L 623.745455 94.711818 
L 664.243636 94.711818 
L 664.243636 90.880909 
z
" style="fill:#4b0082;stroke:#4b0082;stroke-linejoin:miter;"/>
   </g>
   <g id="patch_9">
    <path clip-path="url(#pc557810641)" d="M 131.2 99.09 
L 142.145455 99.09 
L 142.145455 97.448182 
L 131.2 97.448182 
z
" style="fill:#bf00bf;stroke:#bf00bf;stroke-linejoin:miter;stroke-width:2;"/>
   </g>
   <g id="patch_10">
    <path clip-path="url(#pc557810641)" d="M 240.654545 99.09 
L 251.6 99.09 
L 251.6 97.448182 
L 240.654545 97.448182 
z
" style="fill:#bf00bf;stroke:#bf00bf;stroke-linejoin:miter;stroke-width:2;"/>
   </g>
   <g id="patch_11">
    <path clip-path="url(#pc557810641)" d="M 372 99.09 
L 382.945455 99.09 
L 382.945455 97.448182 
L 372 97.448182 
z
" style="fill:#bf00bf;stroke:#bf00bf;stroke-linejoin:miter;stroke-width:2;"/>
   </g>
   <g id="patch_12">
    <path clip-path="url(#pc557810641)" d="M 481.454545 99.09 
L 492.4 99.09 
L 492.4 97.448182 
L 481.454545 97.448182 
z
" style="fill:#bf00bf;stroke:#bf00bf;stroke-linejoin:miter;stroke-width:2;"/>
   </g>
   <g id="patch_13">
    <path clip-path="url(#pc557810641)" d="M 612.8 99.09 
L 623.745455 99.09 
L 623.745455 97.448182 
L 612.8 97.448182 
z
" style="fill:#bf00bf;stroke:#bf00bf;stroke-linejoin:miter;stroke-width:2;"/>
   </g>
   <g id="patch_14">
    <path clip-path="url(#pc557810641)" d="M 722.254545 99.09 
L 733.2 99.09 
L 733.2 97.448182 
L 722.254545 97.448182 
z
" style="fill:#bf00bf;stroke:#bf00bf;stroke-linejoin:miter;stroke-width:2;"/>
   </g>
  </g>
  <g id="axes_2">
   <g id="patch_15">
    <path d="M 10.8 71.054091 
L 733.2 71.054091 
L 733.2 53.549783 
L 10.8 53.549783 
z
" style="fill:#ffffff;"/>
   </g>
   <g id="PolyCollection_19">
    <path clip-path="url(#pa027233699)" d="M 22.899304 66.05286 
L 25.393939 64.418209 
L 32.690909 60.317765 
L 39.987879 59.942215 
L 47.284848 59.9756 
L 54.581818 57.294515 
L 61.878788 52.908131 
L 69.175758 56.59732 
L 75.492686 66.05286 
L 69.175758 66.05286 
L 61.878788 66.05286 
L 54.581818 66.05286 
L 47.284848 66.05286 
L 39.987879 66.05286 
L 32.690909 66.05286 
L 25.393939 66.05286 
z
" style="fill:#8b0000;stroke:#8b0000;"/>
    <path clip-path="url(#pa027233699)" d="M 267.644203 66.05286 
L 273.490909 62.153284 
L 280.787879 59.721113 
L 288.084848 60.205588 
L 295.381818 59.055341 
L 302.678788 54.901883 
L 309.975758 53.020864 
L 317.272727 62.182604 
L 320.876091 66.05286 
L 317.272727 66.05286 
L 309.975758 66.05286 
L 302.678788 66.05286 
L 295.381818 66.05286 
L 288.084848 66.05286 
L 280.787879 66.05286 
L 273.490909 66.05286 
z
" style="fill:#8b0000;stroke:#8b0000;"/>
    <path clip-path="url(#pa027233699)" d="M 511.847249 66.05286 
L 514.290909 64.65087 
L 521.587879 60.364166 
L 528.884848 59.899625 
L 536.181818 60.003739 
L 543.478788 57.361521 
L 550.775758 52.942986 
L 558.072727 56.444137 
L 564.478307 66.05286 
L 558.072727 66.05286 
L 550.775758 66.05286 
L 543.478788 66.05286 
L 536.181818 66.05286 
L 528.884848 66.05286 
L 521.587879 66.05286 
L 514.290909 66.05286 
z
" style="fill:#8b0000;stroke:#8b0000;"/>
   </g>
   <g id="PolyCollection_20">
    <path clip-path="url(#pa027233699)" d="M 10.8 70.220552 
L 10.8 70.220552 
L 18.09697 69.199668 
L 22.899304 66.05286 
L 18.09697 66.05286 
L 10.8 66.05286 
z
" style="fill:#0000ff;stroke:#0000ff;"/>
    <path clip-path="url(#pa027233699)" d="M 75.492686 66.05286 
L 76.472727 67.519842 
L 83.769697 69.97995 
L 91.066667 68.169207 
L 98.363636 68.452594 
L 105.660606 68.661093 
L 112.957576 68.528064 
L 120.254545 68.54419 
L 127.551515 68.561523 
L 134.848485 68.551841 
L 142.145455 68.55266 
L 149.442424 68.554067 
L 156.739394 68.553379 
L 164.036364 68.553424 
L 171.333333 68.553448 
L 178.630303 68.553526 
L 185.927273 68.553744 
L 193.224242 68.552539 
L 200.521212 68.554006 
L 207.818182 68.557492 
L 215.115152 68.541215 
L 222.412121 68.557541 
L 229.709091 68.611397 
L 237.006061 68.395129 
L 244.30303 68.566991 
L 251.6 69.87207 
L 258.89697 69.887189 
L 266.193939 67.020142 
L 267.644203 66.05286 
L 266.193939 66.05286 
L 258.89697 66.05286 
L 251.6 66.05286 
L 244.30303 66.05286 
L 237.006061 66.05286 
L 229.709091 66.05286 
L 222.412121 66.05286 
L 215.115152 66.05286 
L 207.818182 66.05286 
L 200.521212 66.05286 
L 193.224242 66.05286 
L 185.927273 66.05286 
L 178.630303 66.05286 
L 171.333333 66.05286 
L 164.036364 66.05286 
L 156.739394 66.05286 
L 149.442424 66.05286 
L 142.145455 66.05286 
L 134.848485 66.05286 
L 127.551515 66.05286 
L 120.254545 66.05286 
L 112.957576 66.05286 
L 105.660606 66.05286 
L 98.363636 66.05286 
L 91.066667 66.05286 
L 83.769697 66.05286 
L 76.472727 66.05286 
z
" style="fill:#0000ff;stroke:#0000ff;"/>
    <path clip-path="url(#pa027233699)" d="M 320.876091 66.05286 
L 324.569697 70.020041 
L 331.866667 68.895281 
L 339.163636 68.158076 
L 346.460606 68.651194 
L 353.757576 68.58556 
L 361.054545 68.523821 
L 368.351515 68.559826 
L 375.648485 68.556335 
L 382.945455 68.551272 
L 390.242424 68.553873 
L 397.539394 68.553716 
L 404.836364 68.553332 
L 412.133333 68.553482 
L 419.430303 68.553424 
L 426.727273 68.55372 
L 434.024242 68.553312 
L 441.321212 68.552416 
L 448.618182 68.556835 
L 455.915152 68.552094 
L 463.212121 68.53811 
L 470.509091 68.597037 
L 477.806061 68.546114 
L 485.10303 68.333834 
L 492.4 69.173685 
L 499.69697 70.219263 
L 506.993939 68.837326 
L 511.847249 66.05286 
L 506.993939 66.05286 
L 499.69697 66.05286 
L 492.4 66.05286 
L 485.10303 66.05286 
L 477.806061 66.05286 
L 470.509091 66.05286 
L 463.212121 66.05286 
L 455.915152 66.05286 
L 448.618182 66.05286 
L 441.321212 66.05286 
L 434.024242 66.05286 
L 426.727273 66.05286 
L 419.430303 66.05286 
L 412.133333 66.05286 
L 404.836364 66.05286 
L 397.539394 66.05286 
L 390.242424 66.05286 
L 382.945455 66.05286 
L 375.648485 66.05286 
L 368.351515 66.05286 
L 361.054545 66.05286 
L 353.757576 66.05286 
L 346.460606 66.05286 
L 339.163636 66.05286 
L 331.866667 66.05286 
L 324.569697 66.05286 
z
" style="fill:#0000ff;stroke:#0000ff;"/>
    <path clip-path="url(#pa027233699)" d="M 564.478307 66.05286 
L 565.369697 67.389994 
L 572.666667 70.004963 
L 579.963636 68.178677 
L 587.260606 68.443218 
L 594.557576 68.662656 
L 601.854545 68.528894 
L 609.151515 68.543499 
L 616.448485 68.561617 
L 623.745455 68.551911 
L 631.042424 68.552608 
L 638.339394 68.554077 
L 645.636364 68.55338 
L 652.933333 68.553402 
L 660.230303 68.553519 
L 667.527273 68.55347 
L 674.824242 68.553469 
L 682.121212 68.553478 
L 689.418182 68.553475 
L 696.715152 68.553475 
L 704.012121 68.553475 
L 711.309091 68.553475 
L 718.606061 68.553475 
L 725.90303 68.553475 
L 733.2 68.553475 
L 733.2 68.553475 
L 733.2 66.05286 
L 725.90303 66.05286 
L 718.606061 66.05286 
L 711.309091 66.05286 
L 704.012121 66.05286 
L 696.715152 66.05286 
L 689.418182 66.05286 
L 682.121212 66.05286 
L 674.824242 66.05286 
L 667.527273 66.05286 
L 660.230303 66.05286 
L 652.933333 66.05286 
L 645.636364 66.05286 
L 638.339394 66.05286 
L 631.042424 66.05286 
L 623.745455 66.05286 
L 616.448485 66.05286 
L 609.151515 66.05286 
L 601.854545 66.05286 
L 594.557576 66.05286 
L 587.260606 66.05286 
L 579.963636 66.05286 
L 572.666667 66.05286 
L 565.369697 66.05286 
z
" style="fill:#0000ff;stroke:#0000ff;"/>
   </g>
   <g id="matplotlib.axis_1">
    <g id="xtick_1">
     <g id="line2d_1"/>
    </g>
    <g id="xtick_2">
     <g id="line2d_2"/>
    </g>
    <g id="xtick_3">
     <g id="line2d_3"/>
    </g>
    <g id="xtick_4">
     <g id="line2d_4"/>
    </g>
    <g id="xtick_5">
     <g id="line2d_5"/>
    </g>
    <g id="xtick_6">
     <g id="line2d_6"/>
    </g>
    <g id="xtick_7">
     <g id="line2d_7"/>
    </g>
    <g id="xtick_8">
     <g id="line2d_8"/>
    </g>
    <g id="xtick_9">
     <g id="line2d_9"/>
    </g>
    <g id="xtick_10">
     <g id="line2d_10"/>
    </g>
    <g id="xtick_11">
     <g id="line2d_11"/>
    </g>
    <g id="xtick_12">
     <g id="line2d_12"/>
    </g>
    <g id="xtick_13">
     <g id="line2d_13"/>
    </g>
    <g id="xtick_14">
     <g id="line2d_14"/>
    </g>
    <g id="xtick_15">
     <g id="line2d_15"/>
    </g>
    <g id="xtick_16">
     <g id="line2d_16"/>
    </g>
    <g id="xtick_17">
     <g id="line2d_17"/>
    </g>
    <g id="xtick_18">
     <g id="line2d_18"/>
    </g>
    <g id="xtick_19">
     <g id="line2d_19"/>
    </g>
    <g id="xtick_20">
     <g id="line2d_20"/>
    </g>
    <g id="xtick_21">
     <g id="line2d_21"/>
    </g>
    <g id="xtick_22">
     <g id="line2d_22"/>
    </g>
    <g id="xtick_23">
     <g id="line2d_23"/>
    </g>
    <g id="xtick_24">
     <g id="line2d_24"/>
    </g>
    <g id="xtick_25">
     <g id="line2d_25"/>
    </g>
    <g id="xtick_26">
     <g id="line2d_26"/>
    </g>
    <g id="xtick_27">
     <g id="line2d_27"/>
    </g>
    <g id="xtick_28">
     <g id="line2d_28"/>
    </g>
    <g id="xtick_29">
     <g id="line2d_29"/>
    </g>
    <g id="xtick_30">
     <g id="line2d_30"/>
    </g>
    <g id="xtick_31">
     <g id="line2d_31"/>
    </g>
    <g id="xtick_32">
     <g id="line2d_32"/>
    </g>
    <g id="xtick_33">
     <g id="line2d_33"/>
    </g>
    <g id="xtick_34">
     <g id="line2d_34"/>
    </g>
    <g id="xtick_35">
     <g id="line2d_35"/>
    </g>
    <g id="xtick_36">
     <g id="line2d_36"/>
    </g>
    <g id="xtick_37">
     <g id="line2d_37"/>
    </g>
    <g id="xtick_38">
     <g id="line2d_38"/>
    </g>
    <g id="xtick_39">
     <g id="line2d_39"/>
    </g>
    <g id="xtick_40">
     <g id="line2d_40"/>
    </g>
    <g id="xtick_41">
     <g id="line2d_41"/>
    </g>
    <g id="xtick_42">
     <g id="line2d_42"/>
    </g>
    <g id="xtick_43">
     <g id="line2d_43"/>
    </g>
    <g id="xtick_44">
     <g id="line2d_44"/>
    </g>
    <g id="xtick_45">
     <g id="line2d_45"/>
    </g>
    <g id="xtick_46">
     <g id="line2d_46"/>
    </g>
    <g id="xtick_47">
     <g id="line2d_47"/>
    </g>
    <g id="xtick_48">
     <g id="line2d_48"/>
    </g>
    <g id="xtick_49">
     <g id="line2d_49"/>
    </g>
    <g id="xtick_50">
     <g id="line2d_50"/>
    </g>
    <g id="xtick_51">
     <g id="line2d_51"/>
    </g>
    <g id="xtick_52">
     <g id="line2d_52"/>
    </g>
    <g id="xtick_53">
     <g id="line2d_53"/>
    </g>
    <g id="xtick_54">
     <g id="line2d_54"/>
    </g>
    <g id="xtick_55">
     <g id="line2d_55"/>
    </g>
    <g id="xtick_56">
     <g id="line2d_56"/>
    </g>
    <g id="xtick_57">
     <g id="line2d_57"/>
    </g>
    <g id="xtick_58">
     <g id="line2d_58"/>
    </g>
    <g id="xtick_59">
     <g id="line2d_59"/>
    </g>
    <g id="xtick_60">
     <g id="line2d_60"/>
    </g>
    <g id="xtick_61">
     <g id="line2d_61"/>
    </g>
    <g id="xtick_62">
     <g id="line2d_62"/>
    </g>
    <g id="xtick_63">
     <g id="line2d_63"/>
    </g>
    <g id="xtick_64">
     <g id="line2d_64"/>
    </g>
    <g id="xtick_65">
     <g id="line2d_65"/>
    </g>
    <g id="xtick_66">
     <g id="line2d_66"/>
    </g>
    <g id="xtick_67">
     <g id="line2d_67"/>
     <g id="text_1">
      <!-- A -->
      <g transform="translate(12.936611 46.070095)scale(0.1 -0.1)">
       <defs>
        <path d="M 34.1875 63.1875 
L 20.796875 26.90625 
L 47.609375 26.90625 
z
M 28.609375 72.90625 
L 39.796875 72.90625 
L 67.578125 0 
L 57.328125 0 
L 50.6875 18.703125 
L 17.828125 18.703125 
L 11.1875 0 
L 0.78125 0 
z
" id="DejaVuSans-65"/>
       </defs>
       <use xlink:href="#DejaVuSans-65"/>
      </g>
     </g>
    </g>
    <g id="xtick_68">
     <g id="line2d_68"/>
     <g id="text_2">
      <!-- G -->
      <g transform="translate(23.59655 46.070095)scale(0.1 -0.1)">
       <defs>
        <path d="M 59.515625 10.40625 
L 59.515625 29.984375 
L 43.40625 29.984375 
L 43.40625 38.09375 
L 69.28125 38.09375 
L 69.28125 6.78125 
Q 63.578125 2.734375 56.6875 0.65625 
Q 49.8125 -1.421875 42 -1.421875 
Q 24.90625 -1.421875 15.25 8.5625 
Q 5.609375 18.5625 5.609375 36.375 
Q 5.609375 54.25 15.25 64.234375 
Q 24.90625 74.21875 42 74.21875 
Q 49.125 74.21875 55.546875 72.453125 
Q 61.96875 70.703125 67.390625 67.28125 
L 67.390625 56.78125 
Q 61.921875 61.421875 55.765625 63.765625 
Q 49.609375 66.109375 42.828125 66.109375 
Q 29.4375 66.109375 22.71875 58.640625 
Q 16.015625 51.171875 16.015625 36.375 
Q 16.015625 21.625 22.71875 14.15625 
Q 29.4375 6.6875 42.828125 6.6875 
Q 48.046875 6.6875 52.140625 7.59375 
Q 56.25 8.5 59.515625 10.40625 
z
" id="DejaVuSans-71"/>
       </defs>
       <use xlink:href="#DejaVuSans-71"/>
      </g>
     </g>
    </g>
    <g id="xtick_69">
     <g id="line2d_69"/>
     <g id="text_3">
      <!-- G -->
      <g transform="translate(34.710397 46.070095)scale(0.1 -0.1)">
       <use xlink:href="#DejaVuSans-71"/>
      </g>
     </g>
    </g>
    <g id="xtick_70">
     <g id="line2d_70"/>
     <g id="text_4">
      <!-- G -->
      <g transform="translate(45.824243 46.070095)scale(0.1 -0.1)">
       <use xlink:href="#DejaVuSans-71"/>
      </g>
     </g>
    </g>
    <g id="xtick_71">
     <g id="line2d_71"/>
     <g id="text_5">
      <!-- G -->
      <g transform="translate(56.938089 46.070095)scale(0.1 -0.1)">
       <use xlink:href="#DejaVuSans-71"/>
      </g>
     </g>
    </g>
    <g id="xtick_72">
     <g id="line2d_72"/>
     <g id="text_6">
      <!-- G -->
      <g transform="translate(68.051935 46.070095)scale(0.1 -0.1)">
       <use xlink:href="#DejaVuSans-71"/>
      </g>
     </g>
    </g>
    <g id="xtick_73">
     <g id="line2d_73"/>
     <g id="text_7">
      <!-- G -->
      <g transform="translate(79.165781 46.070095)scale(0.1 -0.1)">
       <use xlink:href="#DejaVuSans-71"/>
      </g>
     </g>
    </g>
    <g id="xtick_74">
     <g id="line2d_74"/>
     <g id="text_8">
      <!-- G -->
      <g transform="translate(90.279627 46.070095)scale(0.1 -0.1)">
       <use xlink:href="#DejaVuSans-71"/>
      </g>
     </g>
    </g>
    <g id="xtick_75">
     <g id="line2d_75"/>
     <g id="text_9">
      <!-- G -->
      <g transform="translate(101.393474 46.070095)scale(0.1 -0.1)">
       <use xlink:href="#DejaVuSans-71"/>
      </g>
     </g>
    </g>
    <g id="xtick_76">
     <g id="line2d_76"/>
     <g id="text_10">
      <!-- G -->
      <g transform="translate(112.50732 46.070095)scale(0.1 -0.1)">
       <use xlink:href="#DejaVuSans-71"/>
      </g>
     </g>
    </g>
    <g id="xtick_77">
     <g id="line2d_77"/>
     <g id="text_11">
      <!-- G -->
      <g transform="translate(123.621166 46.070095)scale(0.1 -0.1)">
       <use xlink:href="#DejaVuSans-71"/>
      </g>
     </g>
    </g>
    <g id="xtick_78">
     <g id="line2d_78"/>
     <g id="text_12">
      <!-- G -->
      <g transform="translate(134.735012 46.070095)scale(0.1 -0.1)">
       <use xlink:href="#DejaVuSans-71"/>
      </g>
     </g>
    </g>
    <g id="xtick_79">
     <g id="line2d_79"/>
     <g id="text_13">
      <!-- G -->
      <g transform="translate(145.848858 46.070095)scale(0.1 -0.1)">
       <use xlink:href="#DejaVuSans-71"/>
      </g>
     </g>
    </g>
    <g id="xtick_80">
     <g id="line2d_80"/>
     <g id="text_14">
      <!-- G -->
      <g transform="translate(156.962704 46.070095)scale(0.1 -0.1)">
       <use xlink:href="#DejaVuSans-71"/>
      </g>
     </g>
    </g>
    <g id="xtick_81">
     <g id="line2d_81"/>
     <g id="text_15">
      <!-- G -->
      <g transform="translate(168.07655 46.070095)scale(0.1 -0.1)">
       <use xlink:href="#DejaVuSans-71"/>
      </g>
     </g>
    </g>
    <g id="xtick_82">
     <g id="line2d_82"/>
     <g id="text_16">
      <!-- G -->
      <g transform="translate(179.190397 46.070095)scale(0.1 -0.1)">
       <use xlink:href="#DejaVuSans-71"/>
      </g>
     </g>
    </g>
    <g id="xtick_83">
     <g id="line2d_83"/>
     <g id="text_17">
      <!-- G -->
      <g transform="translate(190.304243 46.070095)scale(0.1 -0.1)">
       <use xlink:href="#DejaVuSans-71"/>
      </g>
     </g>
    </g>
    <g id="xtick_84">
     <g id="line2d_84"/>
     <g id="text_18">
      <!-- G -->
      <g transform="translate(201.418089 46.070095)scale(0.1 -0.1)">
       <use xlink:href="#DejaVuSans-71"/>
      </g>
     </g>
    </g>
    <g id="xtick_85">
     <g id="line2d_85"/>
     <g id="text_19">
      <!-- G -->
      <g transform="translate(212.531935 46.070095)scale(0.1 -0.1)">
       <use xlink:href="#DejaVuSans-71"/>
      </g>
     </g>
    </g>
    <g id="xtick_86">
     <g id="line2d_86"/>
     <g id="text_20">
      <!-- G -->
      <g transform="translate(223.645781 46.070095)scale(0.1 -0.1)">
       <use xlink:href="#DejaVuSans-71"/>
      </g>
     </g>
    </g>
    <g id="xtick_87">
     <g id="line2d_87"/>
     <g id="text_21">
      <!-- G -->
      <g transform="translate(234.759627 46.070095)scale(0.1 -0.1)">
       <use xlink:href="#DejaVuSans-71"/>
      </g>
     </g>
    </g>
    <g id="xtick_88">
     <g id="line2d_88"/>
     <g id="text_22">
      <!-- C -->
      <g transform="translate(246.256286 46.070095)scale(0.1 -0.1)">
       <defs>
        <path d="M 64.40625 67.28125 
L 64.40625 56.890625 
Q 59.421875 61.53125 53.78125 63.8125 
Q 48.140625 66.109375 41.796875 66.109375 
Q 29.296875 66.109375 22.65625 58.46875 
Q 16.015625 50.828125 16.015625 36.375 
Q 16.015625 21.96875 22.65625 14.328125 
Q 29.296875 6.6875 41.796875 6.6875 
Q 48.140625 6.6875 53.78125 8.984375 
Q 59.421875 11.28125 64.40625 15.921875 
L 64.40625 5.609375 
Q 59.234375 2.09375 53.4375 0.328125 
Q 47.65625 -1.421875 41.21875 -1.421875 
Q 24.65625 -1.421875 15.125 8.703125 
Q 5.609375 18.84375 5.609375 36.375 
Q 5.609375 53.953125 15.125 64.078125 
Q 24.65625 74.21875 41.21875 74.21875 
Q 47.75 74.21875 53.53125 72.484375 
Q 59.328125 70.75 64.40625 67.28125 
z
" id="DejaVuSans-67"/>
       </defs>
       <use xlink:href="#DejaVuSans-67"/>
      </g>
     </g>
    </g>
    <g id="xtick_89">
     <g id="line2d_89"/>
     <g id="text_23">
      <!-- A -->
      <g transform="translate(257.441226 46.070095)scale(0.1 -0.1)">
       <use xlink:href="#DejaVuSans-65"/>
      </g>
     </g>
    </g>
    <g id="xtick_90">
     <g id="line2d_90"/>
     <g id="text_24">
      <!-- G -->
      <g transform="translate(268.101166 46.070095)scale(0.1 -0.1)">
       <use xlink:href="#DejaVuSans-71"/>
      </g>
     </g>
    </g>
    <g id="xtick_91">
     <g id="line2d_91"/>
     <g id="text_25">
      <!-- G -->
      <g transform="translate(279.215012 46.070095)scale(0.1 -0.1)">
       <use xlink:href="#DejaVuSans-71"/>
      </g>
     </g>
    </g>
    <g id="xtick_92">
     <g id="line2d_92"/>
     <g id="text_26">
      <!-- G -->
      <g transform="translate(290.328858 46.070095)scale(0.1 -0.1)">
       <use xlink:href="#DejaVuSans-71"/>
      </g>
     </g>
    </g>
    <g id="xtick_93">
     <g id="line2d_93"/>
     <g id="text_27">
      <!-- G -->
      <g transform="translate(301.442704 46.070095)scale(0.1 -0.1)">
       <use xlink:href="#DejaVuSans-71"/>
      </g>
     </g>
    </g>
    <g id="xtick_94">
     <g id="line2d_94"/>
     <g id="text_28">
      <!-- G -->
      <g transform="translate(312.55655 46.070095)scale(0.1 -0.1)">
       <use xlink:href="#DejaVuSans-71"/>
      </g>
     </g>
    </g>
    <g id="xtick_95">
     <g id="line2d_95"/>
     <g id="text_29">
      <!-- G -->
      <g transform="translate(323.670397 46.070095)scale(0.1 -0.1)">
       <use xlink:href="#DejaVuSans-71"/>
      </g>
     </g>
    </g>
    <g id="xtick_96">
     <g id="line2d_96"/>
     <g id="text_30">
      <!-- G -->
      <g transform="translate(334.784243 46.070095)scale(0.1 -0.1)">
       <use xlink:href="#DejaVuSans-71"/>
      </g>
     </g>
    </g>
    <g id="xtick_97">
     <g id="line2d_97"/>
     <g id="text_31">
      <!-- G -->
      <g transform="translate(345.898089 46.070095)scale(0.1 -0.1)">
       <use xlink:href="#DejaVuSans-71"/>
      </g>
     </g>
    </g>
    <g id="xtick_98">
     <g id="line2d_98"/>
     <g id="text_32">
      <!-- G -->
      <g transform="translate(357.011935 46.070095)scale(0.1 -0.1)">
       <use xlink:href="#DejaVuSans-71"/>
      </g>
     </g>
    </g>
    <g id="xtick_99">
     <g id="line2d_99"/>
     <g id="text_33">
      <!-- G -->
      <g transform="translate(368.125781 46.070095)scale(0.1 -0.1)">
       <use xlink:href="#DejaVuSans-71"/>
      </g>
     </g>
    </g>
    <g id="xtick_100">
     <g id="line2d_100"/>
     <g id="text_34">
      <!-- G -->
      <g transform="translate(379.239627 46.070095)scale(0.1 -0.1)">
       <use xlink:href="#DejaVuSans-71"/>
      </g>
     </g>
    </g>
    <g id="xtick_101">
     <g id="line2d_101"/>
     <g id="text_35">
      <!-- G -->
      <g transform="translate(390.353474 46.070095)scale(0.1 -0.1)">
       <use xlink:href="#DejaVuSans-71"/>
      </g>
     </g>
    </g>
    <g id="xtick_102">
     <g id="line2d_102"/>
     <g id="text_36">
      <!-- G -->
      <g transform="translate(401.46732 46.070095)scale(0.1 -0.1)">
       <use xlink:href="#DejaVuSans-71"/>
      </g>
     </g>
    </g>
    <g id="xtick_103">
     <g id="line2d_103"/>
     <g id="text_37">
      <!-- G -->
      <g transform="translate(412.581166 46.070095)scale(0.1 -0.1)">
       <use xlink:href="#DejaVuSans-71"/>
      </g>
     </g>
    </g>
    <g id="xtick_104">
     <g id="line2d_104"/>
     <g id="text_38">
      <!-- G -->
      <g transform="translate(423.695012 46.070095)scale(0.1 -0.1)">
       <use xlink:href="#DejaVuSans-71"/>
      </g>
     </g>
    </g>
    <g id="xtick_105">
     <g id="line2d_105"/>
     <g id="text_39">
      <!-- G -->
      <g transform="translate(434.808858 46.070095)scale(0.1 -0.1)">
       <use xlink:href="#DejaVuSans-71"/>
      </g>
     </g>
    </g>
    <g id="xtick_106">
     <g id="line2d_106"/>
     <g id="text_40">
      <!-- G -->
      <g transform="translate(445.922704 46.070095)scale(0.1 -0.1)">
       <use xlink:href="#DejaVuSans-71"/>
      </g>
     </g>
    </g>
    <g id="xtick_107">
     <g id="line2d_107"/>
     <g id="text_41">
      <!-- G -->
      <g transform="translate(457.03655 46.070095)scale(0.1 -0.1)">
       <use xlink:href="#DejaVuSans-71"/>
      </g>
     </g>
    </g>
    <g id="xtick_108">
     <g id="line2d_108"/>
     <g id="text_42">
      <!-- G -->
      <g transform="translate(468.150397 46.070095)scale(0.1 -0.1)">
       <use xlink:href="#DejaVuSans-71"/>
      </g>
     </g>
    </g>
    <g id="xtick_109">
     <g id="line2d_109"/>
     <g id="text_43">
      <!-- G -->
      <g transform="translate(479.264243 46.070095)scale(0.1 -0.1)">
       <use xlink:href="#DejaVuSans-71"/>
      </g>
     </g>
    </g>
    <g id="xtick_110">
     <g id="line2d_110"/>
     <g id="text_44">
      <!-- C -->
      <g transform="translate(490.760901 46.070095)scale(0.1 -0.1)">
       <use xlink:href="#DejaVuSans-67"/>
      </g>
     </g>
    </g>
    <g id="xtick_111">
     <g id="line2d_111"/>
     <g id="text_45">
      <!-- A -->
      <g transform="translate(501.945841 46.070095)scale(0.1 -0.1)">
       <use xlink:href="#DejaVuSans-65"/>
      </g>
     </g>
    </g>
    <g id="xtick_112">
     <g id="line2d_112"/>
     <g id="text_46">
      <!-- G -->
      <g transform="translate(512.605781 46.070095)scale(0.1 -0.1)">
       <use xlink:href="#DejaVuSans-71"/>
      </g>
     </g>
    </g>
    <g id="xtick_113">
     <g id="line2d_113"/>
     <g id="text_47">
      <!-- G -->
      <g transform="translate(523.719627 46.070095)scale(0.1 -0.1)">
       <use xlink:href="#DejaVuSans-71"/>
      </g>
     </g>
    </g>
    <g id="xtick_114">
     <g id="line2d_114"/>
     <g id="text_48">
      <!-- G -->
      <g transform="translate(534.833474 46.070095)scale(0.1 -0.1)">
       <use xlink:href="#DejaVuSans-71"/>
      </g>
     </g>
    </g>
    <g id="xtick_115">
     <g id="line2d_115"/>
     <g id="text_49">
      <!-- G -->
      <g transform="translate(545.94732 46.070095)scale(0.1 -0.1)">
       <use xlink:href="#DejaVuSans-71"/>
      </g>
     </g>
    </g>
    <g id="xtick_116">
     <g id="line2d_116"/>
     <g id="text_50">
      <!-- G -->
      <g transform="translate(557.061166 46.070095)scale(0.1 -0.1)">
       <use xlink:href="#DejaVuSans-71"/>
      </g>
     </g>
    </g>
    <g id="xtick_117">
     <g id="line2d_117"/>
     <g id="text_51">
      <!-- G -->
      <g transform="translate(568.175012 46.070095)scale(0.1 -0.1)">
       <use xlink:href="#DejaVuSans-71"/>
      </g>
     </g>
    </g>
    <g id="xtick_118">
     <g id="line2d_118"/>
     <g id="text_52">
      <!-- G -->
      <g transform="translate(579.288858 46.070095)scale(0.1 -0.1)">
       <use xlink:href="#DejaVuSans-71"/>
      </g>
     </g>
    </g>
    <g id="xtick_119">
     <g id="line2d_119"/>
     <g id="text_53">
      <!-- G -->
      <g transform="translate(590.402704 46.070095)scale(0.1 -0.1)">
       <use xlink:href="#DejaVuSans-71"/>
      </g>
     </g>
    </g>
    <g id="xtick_120">
     <g id="line2d_120"/>
     <g id="text_54">
      <!-- G -->
      <g transform="translate(601.51655 46.070095)scale(0.1 -0.1)">
       <use xlink:href="#DejaVuSans-71"/>
      </g>
     </g>
    </g>
    <g id="xtick_121">
     <g id="line2d_121"/>
     <g id="text_55">
      <!-- G -->
      <g transform="translate(612.630397 46.070095)scale(0.1 -0.1)">
       <use xlink:href="#DejaVuSans-71"/>
      </g>
     </g>
    </g>
    <g id="xtick_122">
     <g id="line2d_122"/>
     <g id="text_56">
      <!-- G -->
      <g transform="translate(623.744243 46.070095)scale(0.1 -0.1)">
       <use xlink:href="#DejaVuSans-71"/>
      </g>
     </g>
    </g>
    <g id="xtick_123">
     <g id="line2d_123"/>
     <g id="text_57">
      <!-- G -->
      <g transform="translate(634.858089 46.070095)scale(0.1 -0.1)">
       <use xlink:href="#DejaVuSans-71"/>
      </g>
     </g>
    </g>
    <g id="xtick_124">
     <g id="line2d_124"/>
     <g id="text_58">
      <!-- G -->
      <g transform="translate(645.971935 46.070095)scale(0.1 -0.1)">
       <use xlink:href="#DejaVuSans-71"/>
      </g>
     </g>
    </g>
    <g id="xtick_125">
     <g id="line2d_125"/>
     <g id="text_59">
      <!-- G -->
      <g transform="translate(657.085781 46.070095)scale(0.1 -0.1)">
       <use xlink:href="#DejaVuSans-71"/>
      </g>
     </g>
    </g>
    <g id="xtick_126">
     <g id="line2d_126"/>
     <g id="text_60">
      <!-- G -->
      <g transform="translate(668.199627 46.070095)scale(0.1 -0.1)">
       <use xlink:href="#DejaVuSans-71"/>
      </g>
     </g>
    </g>
    <g id="xtick_127">
     <g id="line2d_127"/>
     <g id="text_61">
      <!-- G -->
      <g transform="translate(679.313474 46.070095)scale(0.1 -0.1)">
       <use xlink:href="#DejaVuSans-71"/>
      </g>
     </g>
    </g>
    <g id="xtick_128">
     <g id="line2d_128"/>
     <g id="text_62">
      <!-- G -->
      <g transform="translate(690.42732 46.070095)scale(0.1 -0.1)">
       <use xlink:href="#DejaVuSans-71"/>
      </g>
     </g>
    </g>
    <g id="xtick_129">
     <g id="line2d_129"/>
     <g id="text_63">
      <!-- G -->
      <g transform="translate(701.541166 46.070095)scale(0.1 -0.1)">
       <use xlink:href="#DejaVuSans-71"/>
      </g>
     </g>
    </g>
    <g id="xtick_130">
     <g id="line2d_130"/>
     <g id="text_64">
      <!-- G -->
      <g transform="translate(712.655012 46.070095)scale(0.1 -0.1)">
       <use xlink:href="#DejaVuSans-71"/>
      </g>
     </g>
    </g>
    <g id="xtick_131">
     <g id="line2d_131"/>
     <g id="text_65">
      <!-- G -->
      <g transform="translate(723.768858 46.070095)scale(0.1 -0.1)">
       <use xlink:href="#DejaVuSans-71"/>
      </g>
     </g>
    </g>
   </g>
  </g>
  <g id="axes_3">
   <g id="patch_16">
    <path d="M 10.8 153.011909 
L 733.2 153.011909 
L 733.2 130.784217 
L 10.8 130.784217 
z
" style="fill:#ffffff;"/>
   </g>
   <g id="PolyCollection_21">
    <defs>
     <path d="M 10.8 -30.101937 
L 10.8 -30.101937 
L 18.09697 -29.421348 
L 25.393939 -26.233708 
L 32.690909 -23.500079 
L 39.987879 -23.249712 
L 47.284848 -23.271969 
L 54.581818 -21.484579 
L 61.878788 -18.560322 
L 69.175758 -21.019782 
L 76.472727 -28.301464 
L 83.769697 -29.941535 
L 91.066667 -28.734373 
L 98.363636 -28.923298 
L 105.660606 -29.062298 
L 112.957576 -28.973611 
L 120.254545 -28.984362 
L 127.551515 -28.995917 
L 134.848485 -28.989462 
L 142.145455 -28.990009 
L 149.442424 -28.990946 
L 156.739394 -28.990488 
L 164.036364 -28.990518 
L 171.333333 -28.990534 
L 178.630303 -28.990586 
L 185.927273 -28.990731 
L 193.224242 -28.989928 
L 200.521212 -28.990906 
L 207.818182 -28.99323 
L 215.115152 -28.982379 
L 222.412121 -28.993262 
L 229.709091 -29.029167 
L 237.006061 -28.884988 
L 244.30303 -28.999563 
L 251.6 -29.869616 
L 258.89697 -29.879695 
L 266.193939 -27.96833 
L 273.490909 -24.723758 
L 280.787879 -23.102311 
L 288.084848 -23.425294 
L 295.381818 -22.658463 
L 302.678788 -19.88949 
L 309.975758 -18.635478 
L 317.272727 -24.743305 
L 324.569697 -29.968263 
L 331.866667 -29.218423 
L 339.163636 -28.726953 
L 346.460606 -29.055698 
L 353.757576 -29.011942 
L 361.054545 -28.970782 
L 368.351515 -28.994786 
L 375.648485 -28.992458 
L 382.945455 -28.989083 
L 390.242424 -28.990817 
L 397.539394 -28.990713 
L 404.836364 -28.990457 
L 412.133333 -28.990557 
L 419.430303 -28.990518 
L 426.727273 -28.990715 
L 434.024242 -28.990443 
L 441.321212 -28.989846 
L 448.618182 -28.992792 
L 455.915152 -28.989632 
L 463.212121 -28.980309 
L 470.509091 -29.019594 
L 477.806061 -28.985645 
L 485.10303 -28.844125 
L 492.4 -29.404025 
L 499.69697 -30.101077 
L 506.993939 -29.179786 
L 514.290909 -26.388816 
L 521.587879 -23.531013 
L 528.884848 -23.221319 
L 536.181818 -23.290728 
L 543.478788 -21.529249 
L 550.775758 -18.583559 
L 558.072727 -20.91766 
L 565.369697 -28.214898 
L 572.666667 -29.958211 
L 579.963636 -28.740687 
L 587.260606 -28.917047 
L 594.557576 -29.063339 
L 601.854545 -28.974165 
L 609.151515 -28.983902 
L 616.448485 -28.99598 
L 623.745455 -28.989509 
L 631.042424 -28.989974 
L 638.339394 -28.990953 
L 645.636364 -28.990489 
L 652.933333 -28.990503 
L 660.230303 -28.990582 
L 667.527273 -28.990549 
L 674.824242 -28.990548 
L 682.121212 -28.990554 
L 689.418182 -28.990552 
L 696.715152 -28.990552 
L 704.012121 -28.990552 
L 711.309091 -28.990552 
L 718.606061 -28.990552 
L 725.90303 -28.990552 
L 733.2 -28.990552 
L 733.2 -31.213321 
L 733.2 -31.213321 
L 725.90303 -31.213321 
L 718.606061 -31.213321 
L 711.309091 -31.213321 
L 704.012121 -31.213321 
L 696.715152 -31.213322 
L 689.418182 -31.213322 
L 682.121212 -31.213319 
L 674.824242 -31.213325 
L 667.527273 -31.213325 
L 660.230303 -31.213292 
L 652.933333 -31.21337 
L 645.636364 -31.213385 
L 638.339394 -31.21292 
L 631.042424 -31.213899 
L 623.745455 -31.214364 
L 616.448485 -31.207894 
L 609.151515 -31.219972 
L 601.854545 -31.229709 
L 594.557576 -31.140534 
L 587.260606 -31.286826 
L 579.963636 -31.463187 
L 572.666667 -30.245663 
L 565.369697 -31.988975 
L 558.072727 -39.286214 
L 550.775758 -41.620314 
L 543.478788 -38.674624 
L 536.181818 -36.913146 
L 528.884848 -36.982555 
L 521.587879 -36.672861 
L 514.290909 -33.815058 
L 506.993939 -31.024087 
L 499.69697 -30.102797 
L 492.4 -30.799848 
L 485.10303 -31.359749 
L 477.806061 -31.218229 
L 470.509091 -31.18428 
L 463.212121 -31.223565 
L 455.915152 -31.214242 
L 448.618182 -31.211081 
L 441.321212 -31.214027 
L 434.024242 -31.21343 
L 426.727273 -31.213158 
L 419.430303 -31.213356 
L 412.133333 -31.213317 
L 404.836364 -31.213417 
L 397.539394 -31.213161 
L 390.242424 -31.213056 
L 382.945455 -31.21479 
L 375.648485 -31.211415 
L 368.351515 -31.209087 
L 361.054545 -31.233091 
L 353.757576 -31.191932 
L 346.460606 -31.148176 
L 339.163636 -31.476921 
L 331.866667 -30.985451 
L 324.569697 -30.235611 
L 317.272727 -35.460569 
L 309.975758 -41.568395 
L 302.678788 -40.314383 
L 295.381818 -37.545411 
L 288.084848 -36.77858 
L 280.787879 -37.101563 
L 273.490909 -35.480116 
L 266.193939 -32.235544 
L 258.89697 -30.324179 
L 251.6 -30.334258 
L 244.30303 -31.204311 
L 237.006061 -31.318885 
L 229.709091 -31.174707 
L 222.412121 -31.210611 
L 215.115152 -31.221495 
L 207.818182 -31.210644 
L 200.521212 -31.212967 
L 193.224242 -31.213946 
L 185.927273 -31.213142 
L 178.630303 -31.213288 
L 171.333333 -31.21334 
L 164.036364 -31.213355 
L 156.739394 -31.213385 
L 149.442424 -31.212927 
L 142.145455 -31.213865 
L 134.848485 -31.214411 
L 127.551515 -31.207956 
L 120.254545 -31.219511 
L 112.957576 -31.230262 
L 105.660606 -31.141576 
L 98.363636 -31.280576 
L 91.066667 -31.4695 
L 83.769697 -30.262338 
L 76.472727 -31.90241 
L 69.175758 -39.184092 
L 61.878788 -41.643551 
L 54.581818 -38.719295 
L 47.284848 -36.931905 
L 39.987879 -36.954162 
L 32.690909 -36.703795 
L 25.393939 -33.970165 
L 18.09697 -30.782526 
L 10.8 -30.101937 
z
" id="m8d4bf3df3c" style="stroke:#808080;"/>
    </defs>
    <g clip-path="url(#p5a19e42d37)">
     <use style="fill:#808080;stroke:#808080;" x="0" xlink:href="#m8d4bf3df3c" y="172"/>
    </g>
   </g>
   <g id="matplotlib.axis_2">
    <g id="xtick_132">
     <g id="line2d_132">
      <defs>
       <path d="M 0 0 
L 0 3.5 
" id="med121b3985" style="stroke:#000000;stroke-width:0.8;"/>
      </defs>
      <g>
       <use style="stroke:#000000;stroke-width:0.8;" x="110.824615" xlink:href="#med121b3985" y="153.011909"/>
      </g>
     </g>
     <g id="text_66">
      <!-- 10 -->
      <g transform="translate(104.462115 167.610347)scale(0.1 -0.1)">
       <defs>
        <path d="M 12.40625 8.296875 
L 28.515625 8.296875 
L 28.515625 63.921875 
L 10.984375 60.40625 
L 10.984375 69.390625 
L 28.421875 72.90625 
L 38.28125 72.90625 
L 38.28125 8.296875 
L 54.390625 8.296875 
L 54.390625 0 
L 12.40625 0 
z
" id="DejaVuSans-49"/>
        <path d="M 31.78125 66.40625 
Q 24.171875 66.40625 20.328125 58.90625 
Q 16.5 51.421875 16.5 36.375 
Q 16.5 21.390625 20.328125 13.890625 
Q 24.171875 6.390625 31.78125 6.390625 
Q 39.453125 6.390625 43.28125 13.890625 
Q 47.125 21.390625 47.125 36.375 
Q 47.125 51.421875 43.28125 58.90625 
Q 39.453125 66.40625 31.78125 66.40625 
z
M 31.78125 74.21875 
Q 44.046875 74.21875 50.515625 64.515625 
Q 56.984375 54.828125 56.984375 36.375 
Q 56.984375 17.96875 50.515625 8.265625 
Q 44.046875 -1.421875 31.78125 -1.421875 
Q 19.53125 -1.421875 13.0625 8.265625 
Q 6.59375 17.96875 6.59375 36.375 
Q 6.59375 54.828125 13.0625 64.515625 
Q 19.53125 74.21875 31.78125 74.21875 
z
" id="DejaVuSans-48"/>
       </defs>
       <use xlink:href="#DejaVuSans-49"/>
       <use x="63.623047" xlink:href="#DejaVuSans-48"/>
      </g>
     </g>
    </g>
    <g id="xtick_133">
     <g id="line2d_133">
      <g>
       <use style="stroke:#000000;stroke-width:0.8;" x="221.963077" xlink:href="#med121b3985" y="153.011909"/>
      </g>
     </g>
     <g id="text_67">
      <!-- 20 -->
      <g transform="translate(215.600577 167.610347)scale(0.1 -0.1)">
       <defs>
        <path d="M 19.1875 8.296875 
L 53.609375 8.296875 
L 53.609375 0 
L 7.328125 0 
L 7.328125 8.296875 
Q 12.9375 14.109375 22.625 23.890625 
Q 32.328125 33.6875 34.8125 36.53125 
Q 39.546875 41.84375 41.421875 45.53125 
Q 43.3125 49.21875 43.3125 52.78125 
Q 43.3125 58.59375 39.234375 62.25 
Q 35.15625 65.921875 28.609375 65.921875 
Q 23.96875 65.921875 18.8125 64.3125 
Q 13.671875 62.703125 7.8125 59.421875 
L 7.8125 69.390625 
Q 13.765625 71.78125 18.9375 73 
Q 24.125 74.21875 28.421875 74.21875 
Q 39.75 74.21875 46.484375 68.546875 
Q 53.21875 62.890625 53.21875 53.421875 
Q 53.21875 48.921875 51.53125 44.890625 
Q 49.859375 40.875 45.40625 35.40625 
Q 44.1875 33.984375 37.640625 27.21875 
Q 31.109375 20.453125 19.1875 8.296875 
z
" id="DejaVuSans-50"/>
       </defs>
       <use xlink:href="#DejaVuSans-50"/>
       <use x="63.623047" xlink:href="#DejaVuSans-48"/>
      </g>
     </g>
    </g>
    <g id="xtick_134">
     <g id="line2d_134">
      <g>
       <use style="stroke:#000000;stroke-width:0.8;" x="333.101538" xlink:href="#med121b3985" y="153.011909"/>
      </g>
     </g>
     <g id="text_68">
      <!-- 30 -->
      <g transform="translate(326.739038 167.610347)scale(0.1 -0.1)">
       <defs>
        <path d="M 40.578125 39.3125 
Q 47.65625 37.796875 51.625 33 
Q 55.609375 28.21875 55.609375 21.1875 
Q 55.609375 10.40625 48.1875 4.484375 
Q 40.765625 -1.421875 27.09375 -1.421875 
Q 22.515625 -1.421875 17.65625 -0.515625 
Q 12.796875 0.390625 7.625 2.203125 
L 7.625 11.71875 
Q 11.71875 9.328125 16.59375 8.109375 
Q 21.484375 6.890625 26.8125 6.890625 
Q 36.078125 6.890625 40.9375 10.546875 
Q 45.796875 14.203125 45.796875 21.1875 
Q 45.796875 27.640625 41.28125 31.265625 
Q 36.765625 34.90625 28.71875 34.90625 
L 20.21875 34.90625 
L 20.21875 43.015625 
L 29.109375 43.015625 
Q 36.375 43.015625 40.234375 45.921875 
Q 44.09375 48.828125 44.09375 54.296875 
Q 44.09375 59.90625 40.109375 62.90625 
Q 36.140625 65.921875 28.71875 65.921875 
Q 24.65625 65.921875 20.015625 65.03125 
Q 15.375 64.15625 9.8125 62.3125 
L 9.8125 71.09375 
Q 15.4375 72.65625 20.34375 73.4375 
Q 25.25 74.21875 29.59375 74.21875 
Q 40.828125 74.21875 47.359375 69.109375 
Q 53.90625 64.015625 53.90625 55.328125 
Q 53.90625 49.265625 50.4375 45.09375 
Q 46.96875 40.921875 40.578125 39.3125 
z
" id="DejaVuSans-51"/>
       </defs>
       <use xlink:href="#DejaVuSans-51"/>
       <use x="63.623047" xlink:href="#DejaVuSans-48"/>
      </g>
     </g>
    </g>
    <g id="xtick_135">
     <g id="line2d_135">
      <g>
       <use style="stroke:#000000;stroke-width:0.8;" x="444.24" xlink:href="#med121b3985" y="153.011909"/>
      </g>
     </g>
     <g id="text_69">
      <!-- 40 -->
      <g transform="translate(437.8775 167.610347)scale(0.1 -0.1)">
       <defs>
        <path d="M 37.796875 64.3125 
L 12.890625 25.390625 
L 37.796875 25.390625 
z
M 35.203125 72.90625 
L 47.609375 72.90625 
L 47.609375 25.390625 
L 58.015625 25.390625 
L 58.015625 17.1875 
L 47.609375 17.1875 
L 47.609375 0 
L 37.796875 0 
L 37.796875 17.1875 
L 4.890625 17.1875 
L 4.890625 26.703125 
z
" id="DejaVuSans-52"/>
       </defs>
       <use xlink:href="#DejaVuSans-52"/>
       <use x="63.623047" xlink:href="#DejaVuSans-48"/>
      </g>
     </g>
    </g>
    <g id="xtick_136">
     <g id="line2d_136">
      <g>
       <use style="stroke:#000000;stroke-width:0.8;" x="555.378462" xlink:href="#med121b3985" y="153.011909"/>
      </g>
     </g>
     <g id="text_70">
      <!-- 50 -->
      <g transform="translate(549.015962 167.610347)scale(0.1 -0.1)">
       <defs>
        <path d="M 10.796875 72.90625 
L 49.515625 72.90625 
L 49.515625 64.59375 
L 19.828125 64.59375 
L 19.828125 46.734375 
Q 21.96875 47.46875 24.109375 47.828125 
Q 26.265625 48.1875 28.421875 48.1875 
Q 40.625 48.1875 47.75 41.5 
Q 54.890625 34.8125 54.890625 23.390625 
Q 54.890625 11.625 47.5625 5.09375 
Q 40.234375 -1.421875 26.90625 -1.421875 
Q 22.3125 -1.421875 17.546875 -0.640625 
Q 12.796875 0.140625 7.71875 1.703125 
L 7.71875 11.625 
Q 12.109375 9.234375 16.796875 8.0625 
Q 21.484375 6.890625 26.703125 6.890625 
Q 35.15625 6.890625 40.078125 11.328125 
Q 45.015625 15.765625 45.015625 23.390625 
Q 45.015625 31 40.078125 35.4375 
Q 35.15625 39.890625 26.703125 39.890625 
Q 22.75 39.890625 18.8125 39.015625 
Q 14.890625 38.140625 10.796875 36.28125 
z
" id="DejaVuSans-53"/>
       </defs>
       <use xlink:href="#DejaVuSans-53"/>
       <use x="63.623047" xlink:href="#DejaVuSans-48"/>
      </g>
     </g>
    </g>
    <g id="xtick_137">
     <g id="line2d_137">
      <g>
       <use style="stroke:#000000;stroke-width:0.8;" x="666.516923" xlink:href="#med121b3985" y="153.011909"/>
      </g>
     </g>
     <g id="text_71">
      <!-- 60 -->
      <g transform="translate(660.154423 167.610347)scale(0.1 -0.1)">
       <defs>
        <path d="M 33.015625 40.375 
Q 26.375 40.375 22.484375 35.828125 
Q 18.609375 31.296875 18.609375 23.390625 
Q 18.609375 15.53125 22.484375 10.953125 
Q 26.375 6.390625 33.015625 6.390625 
Q 39.65625 6.390625 43.53125 10.953125 
Q 47.40625 15.53125 47.40625 23.390625 
Q 47.40625 31.296875 43.53125 35.828125 
Q 39.65625 40.375 33.015625 40.375 
z
M 52.59375 71.296875 
L 52.59375 62.3125 
Q 48.875 64.0625 45.09375 64.984375 
Q 41.3125 65.921875 37.59375 65.921875 
Q 27.828125 65.921875 22.671875 59.328125 
Q 17.53125 52.734375 16.796875 39.40625 
Q 19.671875 43.65625 24.015625 45.921875 
Q 28.375 48.1875 33.59375 48.1875 
Q 44.578125 48.1875 50.953125 41.515625 
Q 57.328125 34.859375 57.328125 23.390625 
Q 57.328125 12.15625 50.6875 5.359375 
Q 44.046875 -1.421875 33.015625 -1.421875 
Q 20.359375 -1.421875 13.671875 8.265625 
Q 6.984375 17.96875 6.984375 36.375 
Q 6.984375 53.65625 15.1875 63.9375 
Q 23.390625 74.21875 37.203125 74.21875 
Q 40.921875 74.21875 44.703125 73.484375 
Q 48.484375 72.75 52.59375 71.296875 
z
" id="DejaVuSans-54"/>
       </defs>
       <use xlink:href="#DejaVuSans-54"/>
       <use x="63.623047" xlink:href="#DejaVuSans-48"/>
      </g>
     </g>
    </g>
   </g>
   <g id="patch_17">
    <path d="M 10.8 153.011909 
L 733.2 153.011909 
" style="fill:none;stroke:#000000;stroke-linecap:square;stroke-linejoin:miter;stroke-width:0.8;"/>
   </g>
  </g>
 </g>
 <defs>
  <clipPath id="pc557810641">
   <rect height="27.910909" width="722.4" x="10.8" y="88.144545"/>
  </clipPath>
  <clipPath id="pa027233699">
   <rect height="17.504308" width="722.4" x="10.8" y="53.549783"/>
  </clipPath>
  <clipPath id="p5a19e42d37">
   <rect height="22.227692" width="722.4" x="10.8" y="130.784217"/>
  </clipPath>
 </defs>
</svg>
